<?xml version="1.0" encoding="UTF-8" standalone="no"?>
<!-- Created with Serif DrawPlus 11, 0, 3, 23 (Feb 25, 14:12:55) (http://www.serif.com) -->
<svg version="1.1" xmlns="http://www.w3.org/2000/svg" xmlns:xlink="http://www.w3.org/1999/xlink" width="502.003" height="406.396">
	<g id="dp_group001" transform="matrix(1,0,0,1,-183.481,-147.949)">
		<path id="dp_path019" fill="none" fill-rule="evenodd" stroke="#e30808" stroke-width="1.07733" stroke-dasharray="6.464,3.8784" d="M 295.596,309.743 L 662.683,309.756"/>
		<g id="dp_group218">
			<path id="dp_path219" fill="#f55d00" fill-rule="evenodd" d="M 326.293,309.648 L 425.56,309.793"/>
			<g id="dp_group220">
				<path id="dp_path222" fill="black" fill-rule="evenodd" d="M 420.171,309.247 L 420.171,310.324 L 420.171,312.479 L 425.56,309.793 L 420.171,307.092 Z "/>
				<path id="dp_path223" fill="black" fill-rule="evenodd" d="M 326.292,310.187 L 420.171,310.324 L 420.171,309.247 L 326.295,309.109 Z "/>
			</g>
		</g>
		<path id="dp_path018" fill="#cbcbcb" fill-rule="evenodd" stroke="none" stroke-width="0.533333" d="M 455.563,176.005 L 456.273,190.381 L 462.103,188.007 L 460.932,194.157 L 475.252,191.968 L 463.073,199.735 L 468.073,203.565 L 462.112,205.617 L 471.212,216.839 L 458.323,210.232 L 457.492,216.437 L 452.703,212.34 L 447.483,225.752 L 446.772,211.377 L 440.943,213.752 L 442.112,207.601 L 427.793,209.791 L 439.983,202.024 L 434.972,198.193 L 440.932,196.141 L 431.833,184.919 L 444.723,191.527 L 445.553,185.321 L 450.343,189.419 Z "/>
		<g id="dp_group212">
			<path id="dp_path213" fill="#f55d00" fill-rule="evenodd" d="M 326.307,309.717 L 326.815,220.416"/>
			<g id="dp_group214">
				<path id="dp_path216" fill="black" fill-rule="evenodd" d="M 326.245,225.8 L 327.323,225.805 L 329.477,225.819 L 326.815,220.416 L 324.091,225.787 Z "/>
				<path id="dp_path217" fill="black" fill-rule="evenodd" d="M 326.845,309.72 L 327.323,225.805 L 326.245,225.8 L 325.768,309.715 Z "/>
			</g>
		</g>
		<g id="dp_group188">
			<path id="dp_path189" fill="#f55d00" fill-rule="evenodd" d="M 326.288,309.617 L 415.221,276.025"/>
			<g id="dp_group190">
				<path id="dp_path192" fill="black" fill-rule="evenodd" d="M 409.991,277.425 L 410.371,278.433 L 411.131,280.448 L 415.221,276.025 L 409.231,275.409 Z "/>
				<path id="dp_path193" fill="black" fill-rule="evenodd" d="M 326.479,310.121 L 410.371,278.433 L 409.991,277.425 L 326.097,309.113 Z "/>
			</g>
		</g>
		<path id="dp_path195" fill="#fefeff" fill-rule="evenodd" stroke="black" stroke-width="0.4" d="M 382.28,290.877 C 376.52,290.905 371.824,285.636 371.793,279.107 C 371.761,272.577 376.404,267.263 382.16,267.235 L 385.451,267.219 C 391.2,267.191 395.901,272.46 395.931,278.989 C 395.96,285.519 391.32,290.833 385.56,290.861 Z "/>
		<path id="dp_path196" fill="#fefeff" fill-rule="evenodd" stroke="black" stroke-width="0.4" d="M 382.16,267.235 C 387.92,267.207 392.621,272.476 392.651,279.005 C 392.68,285.535 388.04,290.849 382.28,290.877"/>
		<path id="dp_path210" fill="white" fill-rule="evenodd" stroke="black" stroke-width="0.4" d="M 354.269,288.835 L 382.111,277.583 L 382.141,282.683 L 354.295,293.936 Z "/>
		<path id="dp_path211" fill="white" fill-rule="evenodd" stroke="black" stroke-width="0.4" d="M 354.279,290.9 L 354.293,293.939 L 382.12,282.695 L 382.101,279.656M 356.823,292.915 L 356.815,291.177M 359.351,291.893 L 359.343,290.156M 361.881,290.872 L 361.872,289.133M 364.411,289.849 L 364.401,288.111M 366.94,288.827 L 366.932,287.089M 369.468,287.805 L 369.46,286.068M 371.999,286.784 L 371.989,285.045M 374.528,285.761 L 374.52,284.023M 377.056,284.739 L 377.048,283.001M 379.591,283.717 L 379.581,281.98"/>
		<path id="dp_path228" fill="#fefeff" fill-rule="evenodd" stroke="black" stroke-width="0.4" d="M 354.292,302.055 C 348.535,302.083 343.839,296.813 343.807,290.284 C 343.775,283.755 348.419,278.44 354.177,278.412 L 357.461,278.396 C 363.22,278.368 367.915,283.637 367.947,290.165 C 367.979,296.695 363.335,302.009 357.576,302.039 Z "/>
		<path id="dp_path229" fill="#fefeff" fill-rule="evenodd" stroke="black" stroke-width="0.4" d="M 354.177,278.412 C 359.936,278.384 364.631,283.653 364.663,290.181 C 364.695,296.711 360.051,302.025 354.292,302.055"/>
		<path id="dp_path243" fill="white" fill-rule="evenodd" stroke="black" stroke-width="0.4" d="M 367.028,288.655 L 403.931,288.475 L 403.951,293.576 L 367.053,293.756 Z "/>
		<path id="dp_path244" fill="white" fill-rule="evenodd" stroke="black" stroke-width="0.4" d="M 367.037,290.717 L 367.052,293.756 L 403.92,293.576 L 403.901,290.537M 370.403,293.739 L 370.395,292M 373.755,293.723 L 373.747,291.984M 377.107,293.707 L 377.099,291.968M 380.461,293.691 L 380.451,291.952M 383.811,293.673 L 383.8,291.935M 387.16,293.657 L 387.151,291.919M 390.511,293.641 L 390.501,291.903M 393.861,293.624 L 393.861,291.887M 397.221,293.608 L 397.211,291.869M 400.571,293.592 L 400.56,291.853"/>
		<path id="dp_path246" fill="#fefeff" fill-rule="evenodd" stroke="black" stroke-width="0.4" d="M 414.071,302.949 C 408.311,302.979 403.621,297.709 403.591,291.18 C 403.56,284.651 408.2,279.336 413.961,279.308 L 417.241,279.292 C 423,279.264 427.7,284.532 427.731,291.061 C 427.76,297.591 423.12,302.905 417.36,302.933 Z "/>
		<path id="dp_path247" fill="#fefeff" fill-rule="evenodd" stroke="black" stroke-width="0.4" d="M 413.961,279.308 C 419.721,279.28 424.411,284.548 424.44,291.077 C 424.481,297.607 419.831,302.921 414.071,302.949"/>
		<path id="dp_path261" fill="white" fill-rule="evenodd" stroke="black" stroke-width="0.4" d="M 352.877,278.524 L 352.697,241.625 L 357.799,241.6 L 357.979,278.499 Z "/>
		<path id="dp_path262" fill="white" fill-rule="evenodd" stroke="black" stroke-width="0.4" d="M 354.94,278.515 L 357.979,278.5 L 357.799,241.632 L 354.76,241.647M 357.963,275.149 L 356.224,275.157M 357.947,271.797 L 356.208,271.805M 357.929,268.445 L 356.191,268.453M 357.913,265.095 L 356.175,265.103M 357.897,261.743 L 356.159,261.751M 357.88,258.391 L 356.143,258.399M 357.864,255.039 L 356.125,255.047M 357.848,251.688 L 356.109,251.696M 357.832,248.336 L 356.093,248.345M 357.815,244.984 L 356.076,244.993"/>
		<path id="dp_path264" fill="#fefeff" fill-rule="evenodd" stroke="black" stroke-width="0.4" d="M 353.975,241.843 C 348.216,241.871 343.52,236.601 343.489,230.073 C 343.457,223.544 348.1,218.229 353.859,218.2 L 357.143,218.184 C 362.901,218.156 367.596,223.425 367.628,229.955 C 367.66,236.484 363.017,241.799 357.259,241.827 Z "/>
		<path id="dp_path265" fill="#fefeff" fill-rule="evenodd" stroke="black" stroke-width="0.4" d="M 353.859,218.2 C 359.617,218.172 364.312,223.441 364.344,229.971 C 364.376,236.5 359.733,241.815 353.975,241.843"/>
		<path id="dp_path507" fill="white" fill-rule="evenodd" stroke="black" stroke-width="0.4" d="M 282.563,249.203 C 273.367,249.62 264.416,247.513 258.916,243.64 C 247.831,235.835 255.124,224.644 273.024,221.995 C 279.984,220.965 287.447,221.461 293.691,223.368 C 311.249,228.733 311.249,241.992 293.691,247.355 L 311.419,275.531 Z "/>
		<path id="dp_path198" fill="black" fill-rule="evenodd" d="M 382.091,279.331 L 391.451,275.075"/>
		<g id="dp_group199">
			<path id="dp_path201" fill="black" fill-rule="evenodd" d="M 388.28,276.152 L 388.551,276.759 L 389.111,277.972 L 391.451,275.075 L 387.731,274.939 Z "/>
			<path id="dp_path202" fill="black" fill-rule="evenodd" d="M 382.231,279.633 L 388.551,276.759 L 388.28,276.152 L 381.951,279.027 Z "/>
		</g>
		<g id="dp_group203">
			<path id="dp_path204" fill="black" fill-rule="evenodd" d="M 382.28,279.464 L 382.231,269.184"/>
			<g id="dp_group205">
				<path id="dp_path207" fill="black" fill-rule="evenodd" d="M 381.92,272.519 L 382.581,272.516 L 383.92,272.509 L 382.231,269.184 L 380.581,272.525 Z "/>
				<path id="dp_path208" fill="black" fill-rule="evenodd" d="M 382.621,279.463 L 382.581,272.516 L 381.92,272.519 L 381.951,279.465 Z "/>
			</g>
		</g>
		<g id="dp_group236">
			<path id="dp_path237" fill="black" fill-rule="evenodd" d="M 354.297,290.64 L 354.248,280.361"/>
			<g id="dp_group238">
				<path id="dp_path240" fill="black" fill-rule="evenodd" d="M 353.931,283.696 L 354.597,283.692 L 355.931,283.685 L 354.248,280.361 L 352.597,283.703 Z "/>
				<path id="dp_path241" fill="black" fill-rule="evenodd" d="M 354.631,290.639 L 354.597,283.692 L 353.931,283.696 L 353.964,290.643 Z "/>
			</g>
		</g>
		<g id="dp_group248">
			<path id="dp_path249" fill="black" fill-rule="evenodd" d="M 413.891,291.403 L 423.251,287.148"/>
			<g id="dp_group250">
				<path id="dp_path252" fill="black" fill-rule="evenodd" d="M 420.071,288.224 L 420.351,288.831 L 420.901,290.044 L 423.251,287.148 L 419.52,287.011 Z "/>
				<path id="dp_path253" fill="black" fill-rule="evenodd" d="M 414.021,291.707 L 420.351,288.831 L 420.071,288.224 L 413.751,291.1 Z "/>
			</g>
		</g>
		<g id="dp_group254">
			<path id="dp_path255" fill="black" fill-rule="evenodd" d="M 414.08,291.536 L 414.031,281.256"/>
			<g id="dp_group256">
				<path id="dp_path258" fill="black" fill-rule="evenodd" d="M 413.711,284.592 L 414.381,284.588 L 415.711,284.581 L 414.031,281.256 L 412.381,284.599 Z "/>
				<path id="dp_path259" fill="black" fill-rule="evenodd" d="M 414.411,291.535 L 414.381,284.588 L 413.711,284.592 L 413.741,291.539 Z "/>
			</g>
		</g>
		<g id="dp_group266">
			<path id="dp_path267" fill="black" fill-rule="evenodd" d="M 353.788,230.296 L 363.148,226.04"/>
			<g id="dp_group268">
				<path id="dp_path270" fill="black" fill-rule="evenodd" d="M 359.976,227.117 L 360.251,227.724 L 360.804,228.937 L 363.148,226.04 L 359.423,225.904 Z "/>
				<path id="dp_path271" fill="black" fill-rule="evenodd" d="M 353.927,230.599 L 360.251,227.724 L 359.976,227.117 L 353.651,229.992 Z "/>
			</g>
		</g>
		<g id="dp_group272">
			<path id="dp_path273" fill="black" fill-rule="evenodd" d="M 353.979,230.429 L 353.929,220.149"/>
			<g id="dp_group274">
				<path id="dp_path276" fill="black" fill-rule="evenodd" d="M 353.613,223.484 L 354.28,223.481 L 355.612,223.475 L 353.929,220.149 L 352.28,223.491 Z "/>
				<path id="dp_path277" fill="black" fill-rule="evenodd" d="M 354.312,230.428 L 354.28,223.481 L 353.613,223.484 L 353.645,230.431 Z "/>
			</g>
		</g>
		<g id="dp_group002">
			<text id="dp_text001" transform="matrix(1,1.41586e-015,-1.41586e-015,1,420.53,273.09)" xml:space="preserve" fill="black" font-family="Arial" font-size="15" font-weight="400" font-style="italic" x="0" y="0">y   </text>
			<text id="dp_text002" transform="matrix(1,1.41586e-015,-1.41586e-015,1,323.163,210.83)" xml:space="preserve" fill="black" font-family="Arial" font-size="15" font-weight="400" font-style="italic" x="0" y="0">z   </text>
			<text id="dp_text003" transform="matrix(1,1.41586e-015,-1.41586e-015,1,425.518,323.655)" xml:space="preserve" fill="black" font-family="Arial" font-size="15" font-weight="400" font-style="italic" x="0" y="0">x   </text>
			<text id="dp_text004" transform="matrix(0.996663,1.41157e-015,-1.41586e-015,1,302.244,338.872)" xml:space="preserve" fill="black" font-family="Arial" font-size="26" font-weight="400" x="0" y="0">F  </text>
		</g>
		<g id="dp_group230">
			<path id="dp_path231" fill="black" fill-rule="evenodd" d="M 353.881,290.184 L 363.241,285.929"/>
			<g id="dp_group232">
				<path id="dp_path234" fill="black" fill-rule="evenodd" d="M 360.069,287.005 L 360.344,287.612 L 360.896,288.825 L 363.241,285.929 L 359.516,285.792 Z "/>
				<path id="dp_path235" fill="black" fill-rule="evenodd" d="M 354.019,290.488 L 360.344,287.612 L 360.069,287.005 L 353.744,289.881 Z "/>
			</g>
		</g>
		<text id="dp_text005" transform="matrix(1,1.41543e-015,-1.41586e-015,1,418.245,243.886)" xml:space="preserve" fill="black" font-family="Arial" font-size="15" font-weight="700" x="0" y="0">r  </text>
		<path id="dp_path003" fill="#cbcbcb" fill-rule="evenodd" stroke="none" stroke-width="0.4" d="M 568.193,187.135 L 490.203,186.949 C 485.553,186.939 481.783,183.472 481.783,179.208 L 481.783,155.851 C 481.783,151.587 485.553,148.139 490.203,148.149 L 676.872,148.593 C 681.513,148.604 685.283,152.071 685.283,156.335 L 685.283,179.692 C 685.283,183.956 681.513,187.404 676.872,187.393 L 576.612,187.155 L 536.352,276.56 Z "/>
		<path id="dp_path522" fill="black" fill-rule="evenodd" fill-opacity="0.403922" stroke="black" stroke-width="0.318667" d="M 656.012,166.728 L 669.823,166.728"/>
		<text id="dp_text006" transform="matrix(1,4.66966e-016,-4.66966e-016,1,663.472,174.584)" xml:space="preserve" fill="black" font-family="Arial" font-size="8" font-weight="400" x="0" y="0">2   </text>
		<text id="dp_text007" transform="matrix(1,4.66966e-016,-4.66966e-016,1,625.262,169.597)" xml:space="preserve" fill="black" font-family="Arial" font-size="11" font-weight="400" x="0" y="0">,   </text>
		<text id="dp_text008" transform="matrix(1,4.66966e-016,-4.66966e-016,1,612.092,169.597)" xml:space="preserve" fill="black" font-family="Arial" font-size="11" font-weight="400" x="0" y="0">,   </text>
		<text id="dp_text009" transform="matrix(1,4.66966e-016,-4.66966e-016,1,597.852,169.597)" xml:space="preserve" fill="black" font-family="Arial" font-size="11" font-weight="400" x="0" y="0">,   </text>
		<text id="dp_text010" transform="matrix(1,4.66966e-016,-4.66966e-016,1,536.212,169.597)" xml:space="preserve" fill="black" font-family="Arial" font-size="11" font-weight="400" x="0" y="0">′   </text>
		<text id="dp_text011" transform="matrix(1,4.66966e-016,-4.66966e-016,1,528.102,169.597)" xml:space="preserve" fill="black" font-family="Arial" font-size="11" font-weight="400" x="0" y="0">,   </text>
		<text id="dp_text012" transform="matrix(1,4.66966e-016,-4.66966e-016,1,525.192,169.597)" xml:space="preserve" fill="black" font-family="Arial" font-size="11" font-weight="400" x="0" y="0">′   </text>
		<text id="dp_text013" transform="matrix(1,4.66966e-016,-4.66966e-016,1,514.932,169.597)" xml:space="preserve" fill="black" font-family="Arial" font-size="11" font-weight="400" x="0" y="0">,   </text>
		<text id="dp_text014" transform="matrix(1,4.66966e-016,-4.66966e-016,1,512.022,169.597)" xml:space="preserve" fill="black" font-family="Arial" font-size="11" font-weight="400" x="0" y="0">′   </text>
		<text id="dp_text015" transform="matrix(1,4.66966e-016,-4.66966e-016,1,500.692,169.597)" xml:space="preserve" fill="black" font-family="Arial" font-size="11" font-weight="400" x="0" y="0">,   </text>
		<text id="dp_text016" transform="matrix(1,4.66966e-016,-4.66966e-016,1,497.782,169.597)" xml:space="preserve" fill="black" font-family="Arial" font-size="11" font-weight="400" x="0" y="0">′   </text>
		<text id="dp_text017" transform="matrix(1,4.66966e-016,-4.66966e-016,1,656.622,179.752)" xml:space="preserve" fill="black" font-family="Arial" font-size="11" font-weight="400" font-style="italic" x="0" y="0">c   </text>
		<text id="dp_text018" transform="matrix(1,4.66966e-016,-4.66966e-016,1,656.622,162.314)" xml:space="preserve" fill="black" font-family="Arial" font-size="11" font-weight="400" font-style="italic" x="0" y="0">vx</text>
		<text id="dp_text019" transform="matrix(1,4.66966e-016,-4.66966e-016,1,656.622,162.314)" xml:space="preserve" fill="black" font-family="Arial" font-size="11" font-weight="400" font-style="italic" x="11.0293" y="0"> </text>
		<text id="dp_text020" transform="matrix(1,4.66966e-016,-4.66966e-016,1,667.652,162.314)" xml:space="preserve" fill="black" font-family="Arial" font-size="11" font-weight="400" x="0" y="0">  </text>
		<text id="dp_text021" transform="matrix(1,4.66966e-016,-4.66966e-016,1,668.132,162.314)" xml:space="preserve" fill="black" font-family="Arial" font-size="11" font-weight="400" x="0" y="0">   </text>
		<text id="dp_text022" transform="matrix(1,4.66966e-016,-4.66966e-016,1,640.182,169.597)" xml:space="preserve" fill="black" font-family="Arial" font-size="11" font-weight="400" font-style="italic" x="0" y="0">t   </text>
		<text id="dp_text023" transform="matrix(1,4.66966e-016,-4.66966e-016,1,616.432,169.597)" xml:space="preserve" fill="black" font-family="Arial" font-size="11" font-weight="400" font-style="italic" x="0" y="0">z   </text>
		<text id="dp_text024" transform="matrix(1,4.66966e-016,-4.66966e-016,1,602.372,169.597)" xml:space="preserve" fill="black" font-family="Arial" font-size="11" font-weight="400" font-style="italic" x="0" y="0">y   </text>
		<text id="dp_text025" transform="matrix(1,4.66966e-016,-4.66966e-016,1,585.292,169.597)" xml:space="preserve" fill="black" font-family="Arial" font-size="11" font-weight="400" font-style="italic" x="0" y="0">vt</text>
		<text id="dp_text026" transform="matrix(1,4.66966e-016,-4.66966e-016,1,585.292,169.597)" xml:space="preserve" fill="black" font-family="Arial" font-size="11" font-weight="400" font-style="italic" x="8.56533" y="0"> </text>
		<text id="dp_text027" transform="matrix(1,4.66966e-016,-4.66966e-016,1,593.858,169.597)" xml:space="preserve" fill="black" font-family="Arial" font-size="11" font-weight="400" x="0" y="0">  </text>
		<text id="dp_text028" transform="matrix(1,4.66966e-016,-4.66966e-016,1,594.232,169.597)" xml:space="preserve" fill="black" font-family="Arial" font-size="11" font-weight="400" x="0" y="0">   </text>
		<text id="dp_text029" transform="matrix(1,4.66966e-016,-4.66966e-016,1,568.212,169.597)" xml:space="preserve" fill="black" font-family="Arial" font-size="11" font-weight="400" font-style="italic" x="0" y="0">x   </text>
		<text id="dp_text030" transform="matrix(1,4.66966e-016,-4.66966e-016,1,532.082,169.597)" xml:space="preserve" fill="black" font-family="Arial" font-size="11" font-weight="400" font-style="italic" x="0" y="0">t   </text>
		<text id="dp_text031" transform="matrix(1,4.66966e-016,-4.66966e-016,1,519.272,169.597)" xml:space="preserve" fill="black" font-family="Arial" font-size="11" font-weight="400" font-style="italic" x="0" y="0">z   </text>
		<text id="dp_text032" transform="matrix(1,4.66966e-016,-4.66966e-016,1,505.212,169.597)" xml:space="preserve" fill="black" font-family="Arial" font-size="11" font-weight="400" font-style="italic" x="0" y="0">y   </text>
		<path id="dp_path546" fill="black" fill-rule="evenodd" d="M 491.252,172.651 L 491.252,172.987 C 490.292,172.311 489.543,171.319 489.003,170.013 C 488.473,168.705 488.203,167.276 488.203,165.721 C 488.203,164.104 488.483,162.633 489.043,161.305 C 489.612,159.977 490.343,159.029 491.252,158.457 L 491.252,158.784 C 490.793,159.139 490.423,159.621 490.132,160.235 C 489.843,160.848 489.623,161.625 489.483,162.568 C 489.332,163.512 489.263,164.495 489.263,165.519 C 489.263,166.679 489.332,167.725 489.463,168.66 C 489.593,169.596 489.803,170.372 490.073,170.987 C 490.343,171.603 490.732,172.157 491.252,172.651 Z "/>
		<path id="dp_path547" fill="black" fill-rule="evenodd" d="M 538.963,158.784 L 538.963,158.457 C 539.923,159.128 540.673,160.116 541.203,161.423 C 541.743,162.729 542.003,164.16 542.003,165.713 C 542.003,167.331 541.723,168.803 541.163,170.133 C 540.603,171.464 539.863,172.413 538.963,172.987 L 538.963,172.651 C 539.413,172.296 539.793,171.813 540.083,171.201 C 540.372,170.588 540.593,169.811 540.732,168.871 C 540.872,167.931 540.943,166.947 540.943,165.917 C 540.943,164.763 540.872,163.716 540.743,162.78 C 540.612,161.841 540.413,161.064 540.143,160.448 C 539.863,159.833 539.473,159.279 538.963,158.784 Z "/>
		<path id="dp_path548" fill="black" fill-rule="evenodd" d="M 567.963,172.651 L 567.963,172.987 C 566.993,172.311 566.252,171.319 565.713,170.013 C 565.183,168.705 564.913,167.276 564.913,165.721 C 564.913,164.104 565.193,162.633 565.753,161.305 C 566.323,159.977 567.052,159.029 567.963,158.457 L 567.963,158.784 C 567.503,159.139 567.132,159.621 566.843,160.235 C 566.553,160.848 566.332,161.625 566.193,162.568 C 566.043,163.512 565.972,164.495 565.972,165.519 C 565.972,166.679 566.043,167.725 566.173,168.66 C 566.303,169.596 566.513,170.372 566.783,170.987 C 567.052,171.603 567.443,172.157 567.963,172.651 Z "/>
		<path id="dp_path549" fill="black" fill-rule="evenodd" d="M 595.932,158.784 L 595.932,158.457 C 596.893,159.128 597.643,160.116 598.183,161.423 C 598.713,162.729 598.983,164.16 598.983,165.713 C 598.983,167.331 598.703,168.803 598.143,170.133 C 597.572,171.464 596.843,172.413 595.932,172.987 L 595.932,172.651 C 596.393,172.296 596.763,171.813 597.052,171.201 C 597.352,170.588 597.563,169.811 597.703,168.871 C 597.852,167.931 597.913,166.947 597.913,165.917 C 597.913,164.763 597.852,163.716 597.723,162.78 C 597.593,161.841 597.393,161.064 597.112,160.448 C 596.843,159.833 596.452,159.279 595.932,158.784 Z "/>
		<path id="dp_path564" fill="black" fill-rule="evenodd" d="M 647.143,166.363 L 653.023,166.363 L 653.023,166.909 L 647.143,166.909 Z "/>
		<path id="dp_path565" fill="black" fill-rule="evenodd" d="M 633.553,164.449 L 634.492,164.449 C 634.443,164.584 634.132,165.224 633.572,166.368 C 633.343,166.845 633.173,167.209 633.073,167.456 C 633.033,167.557 632.983,167.667 632.923,167.787 L 632.283,169.165 C 632.303,169.405 632.323,169.627 632.332,169.828 C 632.352,170.029 632.352,170.212 632.352,170.377 C 632.352,170.885 632.323,171.277 632.243,171.555 C 632.193,171.749 632.123,171.883 632.033,171.956 C 631.953,172.028 631.852,172.064 631.753,172.064 C 631.632,172.064 631.523,172.012 631.423,171.907 C 631.332,171.803 631.283,171.668 631.283,171.504 C 631.283,171.216 631.343,170.885 631.463,170.508 C 631.572,170.133 631.743,169.712 631.972,169.244 C 631.703,167.328 631.483,166.171 631.323,165.773 C 631.163,165.376 630.932,165.176 630.643,165.176 C 630.473,165.176 630.332,165.231 630.233,165.339 C 630.132,165.445 630.052,165.689 630.003,166.067 L 629.783,166.067 C 629.772,165.955 629.772,165.871 629.772,165.813 C 629.772,165.297 629.872,164.908 630.073,164.645 C 630.233,164.452 630.433,164.355 630.692,164.355 C 630.913,164.355 631.103,164.421 631.243,164.556 C 631.433,164.747 631.612,165.161 631.763,165.801 C 631.963,166.632 632.112,167.535 632.223,168.511 L 632.713,166.845 C 632.923,166.097 633.203,165.299 633.553,164.449 Z "/>
		<path id="dp_path566" fill="black" fill-rule="evenodd" d="M 577.323,166.363 L 583.203,166.363 L 583.203,166.909 L 577.323,166.909 Z "/>
		<path id="dp_path567" fill="black" fill-rule="evenodd" d="M 563.052,164.449 L 563.993,164.449 C 563.932,164.584 563.632,165.224 563.073,166.368 C 562.843,166.845 562.673,167.209 562.572,167.456 C 562.532,167.557 562.483,167.667 562.423,167.787 L 561.783,169.165 C 561.803,169.405 561.823,169.627 561.833,169.828 C 561.843,170.029 561.852,170.212 561.852,170.377 C 561.852,170.885 561.812,171.277 561.743,171.555 C 561.692,171.749 561.623,171.883 561.532,171.956 C 561.443,172.028 561.352,172.064 561.252,172.064 C 561.132,172.064 561.023,172.012 560.923,171.907 C 560.833,171.803 560.783,171.668 560.783,171.504 C 560.783,171.216 560.843,170.885 560.953,170.508 C 561.073,170.133 561.243,169.712 561.473,169.244 C 561.193,167.328 560.983,166.171 560.812,165.773 C 560.653,165.376 560.433,165.176 560.143,165.176 C 559.972,165.176 559.833,165.231 559.732,165.339 C 559.632,165.445 559.553,165.689 559.503,166.067 L 559.283,166.067 C 559.273,165.955 559.273,165.871 559.273,165.813 C 559.273,165.297 559.372,164.908 559.572,164.645 C 559.723,164.452 559.932,164.355 560.193,164.355 C 560.413,164.355 560.593,164.421 560.743,164.556 C 560.932,164.747 561.112,165.161 561.263,165.801 C 561.452,166.632 561.612,167.535 561.713,168.511 L 562.203,166.845 C 562.423,166.097 562.703,165.299 563.052,164.449 Z "/>
		<path id="dp_path568" fill="black" fill-rule="evenodd" d="M 544.632,164.641 L 550.683,164.641 L 550.683,165.1 L 544.632,165.1 Z M 544.632,166.468 L 550.683,166.468 L 550.683,166.928 L 544.632,166.928 Z "/>
		<text id="dp_text033" transform="matrix(1,4.66966e-016,-4.66966e-016,1,491.502,169.597)" xml:space="preserve" fill="black" font-family="Arial" font-size="11" font-weight="400" font-style="italic" x="0" y="0">x   </text>
		<path id="dp_path030" fill="black" fill-rule="evenodd" d="M 675.203,171.053 L 674.653,171.053 L 674.653,159.488 L 675.203,159.488 Z M 680.583,175.071 L 680.523,175.071 C 680.463,175.789 680.343,176.5 680.163,177.201 C 679.923,178.159 679.583,178.997 679.153,179.719 C 678.713,180.44 678.203,181.048 677.623,181.541 C 677.193,181.904 676.713,182.199 676.163,182.428 L 676.033,182.312 C 677.092,181.588 677.923,180.737 678.543,179.761 C 679.043,178.981 679.413,178.044 679.663,176.953 C 679.913,175.863 680.033,174.855 680.033,173.928 L 680.033,170.861 L 680.033,163.505 L 680.033,159.488 L 680.033,159.267 C 680.012,158.163 679.863,157.087 679.563,156.04 C 679.252,154.923 678.783,153.94 678.153,153.096 C 677.612,152.364 676.903,151.697 676.033,151.1 L 676.163,150.985 C 677.063,151.363 677.863,151.983 678.563,152.847 C 679.263,153.709 679.772,154.755 680.092,155.983 C 680.303,156.777 680.443,157.563 680.523,158.34 L 680.583,158.34 L 680.583,163.505 L 680.583,170.861 L 680.583,173.815 Z "/>
		<path id="dp_path031" fill="black" fill-rule="evenodd" d="M 675.203,169.713 L 675.203,172.668 C 675.203,173.819 675.063,174.948 674.783,176.053 C 674.543,177.009 674.203,177.849 673.772,178.571 C 673.332,179.292 672.823,179.9 672.233,180.392 C 671.812,180.755 671.332,181.052 670.783,181.279 L 670.653,181.164 C 671.713,180.439 672.543,179.589 673.163,178.613 C 673.653,177.833 674.033,176.897 674.283,175.807 C 674.532,174.715 674.653,173.707 674.653,172.78 L 674.653,169.713 Z M 675.203,163.699 L 674.653,163.699 L 674.653,160.636 C 674.653,159.455 674.492,158.307 674.183,157.188 C 673.872,156.071 673.403,155.089 672.772,154.244 C 672.233,153.512 671.523,152.845 670.653,152.248 L 670.783,152.133 C 671.683,152.511 672.483,153.131 673.183,153.995 C 673.883,154.857 674.393,155.904 674.713,157.131 C 675.033,158.359 675.203,159.565 675.203,160.749 Z "/>
		<path id="dp_path032" fill="black" fill-rule="evenodd" d="M 635.823,169.713 L 635.823,172.78 C 635.823,173.96 635.972,175.109 636.292,176.227 C 636.603,177.343 637.073,178.324 637.703,179.169 C 638.243,179.897 638.953,180.563 639.812,181.164 L 639.692,181.279 C 638.793,180.901 637.993,180.283 637.292,179.42 C 636.593,178.559 636.083,177.513 635.753,176.283 C 635.433,175.055 635.273,173.849 635.273,172.668 L 635.273,169.713 L 635.273,163.699 L 635.273,160.749 L 635.273,159.488 L 635.332,159.488 C 635.393,158.769 635.513,158.06 635.692,157.359 C 635.932,156.405 636.273,155.567 636.703,154.847 C 637.143,154.124 637.653,153.517 638.233,153.025 C 638.653,152.661 639.143,152.365 639.692,152.133 L 639.812,152.248 C 638.763,152.972 637.932,153.824 637.313,154.799 C 636.823,155.581 636.452,156.517 636.193,157.609 C 635.943,158.7 635.823,159.709 635.823,160.636 L 635.823,163.699 Z "/>
		<path id="dp_path033" fill="black" fill-rule="evenodd" d="M 554.423,175.025 C 554.483,175.823 554.632,176.604 554.843,177.373 C 555.163,178.491 555.632,179.472 556.252,180.316 C 556.793,181.045 557.503,181.711 558.372,182.312 L 558.252,182.428 C 557.343,182.049 556.543,181.431 555.843,180.568 C 555.153,179.708 554.632,178.661 554.313,177.432 C 554.103,176.635 553.963,175.847 553.893,175.071 L 553.833,175.071 L 553.833,173.815 L 553.833,170.861 L 553.833,163.505 L 553.833,162.551 L 553.833,159.601 L 553.833,158.34 L 553.883,158.34 C 553.953,157.621 554.073,156.911 554.252,156.209 C 554.483,155.257 554.823,154.42 555.263,153.697 C 555.692,152.976 556.203,152.369 556.783,151.877 C 557.212,151.513 557.692,151.216 558.252,150.985 L 558.372,151.1 C 557.323,151.825 556.483,152.676 555.863,153.651 C 555.372,154.432 555.003,155.368 554.753,156.46 C 554.503,157.552 554.372,158.561 554.372,159.488 L 554.372,162.551 L 554.372,163.505 L 554.372,170.861 L 554.372,173.928 C 554.372,174.296 554.393,174.663 554.423,175.025 Z "/>
		<g id="dp_group020">
			<path id="dp_path021" fill="black" fill-rule="evenodd" d="M 534.452,309.371 L 623.383,275.779"/>
			<g id="dp_group022">
				<path id="dp_path024" fill="black" fill-rule="evenodd" d="M 618.153,277.179 L 618.543,278.187 L 619.303,280.201 L 623.383,275.779 L 617.393,275.163 Z "/>
				<path id="dp_path025" fill="black" fill-rule="evenodd" d="M 534.643,309.875 L 618.543,278.187 L 618.153,277.179 L 534.263,308.867 Z "/>
			</g>
		</g>
		<g id="dp_group051">
			<path id="dp_path053" fill="black" fill-rule="evenodd" d="M 628.332,309 L 628.332,310.077 L 628.332,312.232 L 633.723,309.547 L 628.343,306.845 Z "/>
			<path id="dp_path054" fill="black" fill-rule="evenodd" d="M 534.452,309.94 L 628.332,310.077 L 628.332,309 L 534.463,308.863 Z "/>
		</g>
		<text id="dp_text034" transform="matrix(1,1.41586e-015,-1.41586e-015,1,635.862,322.566)" xml:space="preserve" fill="black" font-family="Arial" font-size="15" font-weight="400" font-style="italic" x="0" y="0">x′   </text>
		<text id="dp_text035" transform="matrix(1,1.41586e-015,-1.41586e-015,1,628.702,272.843)" xml:space="preserve" fill="black" font-family="Arial" font-size="15" font-weight="400" font-style="italic" x="0" y="0">y′</text>
		<text id="dp_text036" transform="matrix(1,1.41586e-015,-1.41586e-015,1,628.702,272.843)" xml:space="preserve" fill="black" font-family="Arial" font-size="15" font-weight="400" font-style="italic" x="10.4" y="0"> </text>
		<text id="dp_text037" transform="matrix(1,1.41586e-015,-1.41586e-015,1,639.102,272.843)" xml:space="preserve" fill="#1e02ab" font-family="Arial" font-size="15" font-weight="400" x="0" y="0">  </text>
		<text id="dp_text038" transform="matrix(1,1.41586e-015,-1.41586e-015,1,638.802,272.843)" xml:space="preserve" fill="#1e02ab" font-family="Arial" font-size="15" font-weight="400" x="0" y="0">   </text>
		<text id="dp_text039" transform="matrix(1,1.41586e-015,-1.41586e-015,1,531.332,210.583)" xml:space="preserve" fill="black" font-family="Arial" font-size="15" font-weight="400" font-style="italic" x="0" y="0">z′</text>
		<text id="dp_text040" transform="matrix(1,1.41586e-015,-1.41586e-015,1,531.332,210.583)" xml:space="preserve" fill="black" font-family="Arial" font-size="15" font-weight="400" font-style="italic" x="10.4" y="0"> </text>
		<text id="dp_text041" transform="matrix(1,1.41586e-015,-1.41586e-015,1,541.732,210.583)" xml:space="preserve" fill="#1e02ab" font-family="Arial" font-size="15" font-weight="400" x="0" y="0">  </text>
		<text id="dp_text042" transform="matrix(1,1.41586e-015,-1.41586e-015,1,541.432,210.583)" xml:space="preserve" fill="#1e02ab" font-family="Arial" font-size="15" font-weight="400" x="0" y="0">   </text>
		<g id="dp_group082">
			<path id="dp_path083" fill="#e30808" fill-rule="evenodd" d="M 450.852,199.88 L 533.413,309.581"/>
			<g id="dp_group084">
				<path id="dp_path086" fill="#e30808" fill-rule="evenodd" d="M 454.163,205.896 L 455.713,204.728 L 459.983,203.945 L 450.852,199.88 L 452.223,209.784 Z "/>
				<path id="dp_path087" fill="#e30808" fill-rule="evenodd" d="M 454.163,205.896 L 532.632,310.165 L 534.193,308.997 L 455.713,204.728 Z "/>
			</g>
		</g>
		<path id="dp_path287" fill="#e30808" fill-rule="evenodd" stroke="none" stroke-width="0.481333" d="M 615.352,338.523 L 603.343,333.589 L 603.332,337.028 L 546.643,336.8 L 546.632,339.691 L 603.323,339.919 L 603.303,343.357 Z "/>
		<text id="dp_text043" transform="matrix(0.996359,1.4107e-015,-1.41586e-015,1,502.762,340.025)" xml:space="preserve" fill="black" font-family="Arial" font-size="26" font-weight="400" x="0" y="0">F′</text>
		<text id="dp_text044" transform="matrix(0.996499,1.4109e-015,-1.41586e-015,1,502.835,340.025)" xml:space="preserve" fill="black" font-family="Arial" font-size="26" font-weight="400" x="20.7307" y="0"> </text>
		<text id="dp_text045" transform="matrix(0.996499,1.4109e-015,-1.41586e-015,1,524.813,340.025)" xml:space="preserve" fill="#1e02ab" font-family="Arial" font-size="26" font-weight="400" x="0" y="0">  </text>
		<text id="dp_text046" transform="matrix(0.996499,1.4109e-015,-1.41586e-015,1,590.912,335.225)" xml:space="preserve" fill="black" font-family="Arial" font-size="26" font-weight="400" x="0" y="0">   </text>
		<g id="dp_group049">
			<text id="dp_text047" transform="matrix(1,1.41543e-015,-1.41586e-015,1,616.972,344.234)" xml:space="preserve" fill="#e30808" font-family="Arial" font-size="16" font-weight="700" x="0" y="0">+  </text>
			<text id="dp_text048" transform="matrix(1,1.41543e-015,-1.41543e-015,1,626.312,343.797)" xml:space="preserve" fill="#e30808" font-family="Arial" font-size="15" font-weight="700" x="0" y="0">v  </text>
		</g>
		<path id="dp_path027" fill="white" fill-rule="evenodd" stroke="black" stroke-width="0.4" d="M 588.292,287.705 C 583.972,287.687 580.503,282.38 580.543,275.851 C 580.572,269.321 584.103,264.044 588.423,264.063 L 590.883,264.073 C 595.193,264.092 598.673,269.399 598.632,275.928 C 598.603,282.457 595.073,287.735 590.753,287.716 Z "/>
		<path id="dp_path028" fill="white" fill-rule="evenodd" stroke="black" stroke-width="0.4" d="M 588.423,264.063 C 592.732,264.081 596.212,269.388 596.173,275.917 C 596.143,282.447 592.612,287.724 588.292,287.705"/>
		<path id="dp_path043" fill="white" fill-rule="evenodd" stroke="black" stroke-width="0.4" d="M 567.483,285.453 L 588.452,274.428 L 588.423,279.528 L 567.452,290.553 Z "/>
		<path id="dp_path044" fill="white" fill-rule="evenodd" stroke="black" stroke-width="0.4" d="M 567.473,287.517 L 567.452,290.556 L 588.403,279.54 L 588.423,276.501M 569.352,289.555 L 569.363,287.817M 571.263,288.553 L 571.273,286.816M 573.163,287.552 L 573.173,285.813M 575.073,286.551 L 575.083,284.812M 576.972,285.548 L 576.983,283.811M 578.883,284.547 L 578.893,282.809M 580.783,283.545 L 580.793,281.807M 582.692,282.545 L 582.703,280.807M 584.593,281.543 L 584.603,279.805M 586.503,280.541 L 586.513,278.804"/>
		<path id="dp_path061" fill="white" fill-rule="evenodd" stroke="black" stroke-width="0.4" d="M 567.323,298.715 C 563.012,298.696 559.532,293.389 559.572,286.86 C 559.603,280.331 563.132,275.053 567.452,275.072 L 569.913,275.083 C 574.223,275.101 577.703,280.408 577.663,286.937 C 577.632,293.467 574.103,298.744 569.783,298.725 Z "/>
		<path id="dp_path062" fill="white" fill-rule="evenodd" stroke="black" stroke-width="0.4" d="M 567.452,275.072 C 571.763,275.091 575.233,280.399 575.203,286.927 C 575.173,293.456 571.643,298.733 567.323,298.715"/>
		<path id="dp_path077" fill="white" fill-rule="evenodd" stroke="black" stroke-width="0.4" d="M 577.043,285.376 L 597.433,285.464 L 597.403,290.565 L 577.012,290.477 Z "/>
		<path id="dp_path078" fill="white" fill-rule="evenodd" stroke="black" stroke-width="0.4" d="M 577.033,287.439 L 577.012,290.477 L 597.393,290.565 L 597.403,287.527M 578.872,290.485 L 578.872,288.747M 580.723,290.493 L 580.732,288.755M 582.572,290.501 L 582.583,288.763M 584.423,290.509 L 584.433,288.771M 586.273,290.517 L 586.283,288.779M 588.132,290.525 L 588.132,288.787M 589.983,290.533 L 589.993,288.795M 591.833,290.541 L 591.843,288.803M 593.683,290.549 L 593.692,288.811M 595.532,290.557 L 595.543,288.819"/>
		<path id="dp_path080" fill="white" fill-rule="evenodd" stroke="black" stroke-width="0.4" d="M 566.532,275.131 L 566.723,238.233 L 570.553,238.249 L 570.352,275.148 Z "/>
		<path id="dp_path081" fill="white" fill-rule="evenodd" stroke="black" stroke-width="0.4" d="M 568.073,275.139 L 570.352,275.149 L 570.553,238.281 L 568.273,238.272M 570.372,271.799 L 569.073,271.793M 570.393,268.447 L 569.083,268.441M 570.403,265.095 L 569.103,265.089M 570.423,261.744 L 569.123,261.739M 570.443,258.392 L 569.143,258.387M 570.463,255.04 L 569.153,255.035M 570.483,251.688 L 569.173,251.683M 570.492,248.337 L 569.193,248.332M 570.513,244.985 L 569.212,244.98M 570.532,241.633 L 569.233,241.628"/>
		<path id="dp_path092" fill="white" fill-rule="evenodd" stroke="black" stroke-width="0.4" d="M 566.993,238.837 C 562.673,238.819 559.203,233.511 559.233,226.983 C 559.273,220.453 562.803,215.176 567.112,215.195 L 569.572,215.205 C 573.893,215.224 577.363,220.531 577.332,227.06 C 577.292,233.589 573.763,238.867 569.452,238.848 Z "/>
		<path id="dp_path093" fill="white" fill-rule="evenodd" stroke="black" stroke-width="0.4" d="M 567.112,215.195 C 571.433,215.213 574.903,220.52 574.872,227.049 C 574.833,233.579 571.303,238.856 566.993,238.837"/>
		<path id="dp_path108" fill="white" fill-rule="evenodd" stroke="black" stroke-width="0.4" d="M 605.012,300.277 C 600.692,300.259 597.223,294.952 597.252,288.423 C 597.292,281.893 600.823,276.616 605.132,276.635 L 607.593,276.645 C 611.913,276.664 615.383,281.971 615.352,288.5 C 615.313,295.029 611.783,300.307 607.473,300.288 Z "/>
		<path id="dp_path109" fill="white" fill-rule="evenodd" stroke="black" stroke-width="0.4" d="M 605.132,276.635 C 609.452,276.653 612.923,281.96 612.893,288.489 C 612.852,295.019 609.323,300.296 605.012,300.277"/>
		<path id="dp_path112" fill="#5b3ffb" fill-rule="evenodd" d="M 604.963,288.739 L 609.593,280.496"/>
		<g id="dp_group054">
			<path id="dp_path115" fill="black" fill-rule="evenodd" d="M 607.033,282.612 L 607.503,282.923 L 608.443,283.543 L 608.203,279.848 L 606.092,281.992 Z "/>
			<path id="dp_path116" fill="black" fill-rule="evenodd" d="M 605.553,289.007 L 607.503,282.923 L 607.033,282.612 L 605.083,288.696 Z "/>
			<g id="dp_group113">
				<path id="dp_path115" fill="black" fill-rule="evenodd" d="M 590.352,269.915 L 590.833,270.225 L 591.772,270.845 L 591.523,267.151 L 589.413,269.293 Z "/>
				<path id="dp_path116" fill="black" fill-rule="evenodd" d="M 588.883,276.309 L 590.833,270.225 L 590.352,269.915 L 588.413,275.999 Z "/>
			</g>
			<g id="dp_group117">
				<path id="dp_path118" fill="black" fill-rule="evenodd" d="M 588.433,276.167 L 588.492,265.887"/>
				<g id="dp_group119">
					<path id="dp_path121" fill="black" fill-rule="evenodd" d="M 588.223,269.219 L 588.723,269.221 L 589.723,269.225 L 588.492,265.887 L 587.223,269.215 Z "/>
					<path id="dp_path122" fill="black" fill-rule="evenodd" d="M 588.692,276.168 L 588.723,269.221 L 588.223,269.219 L 588.193,276.165 Z "/>
				</g>
			</g>
			<g id="dp_group113">
				<path id="dp_path115" fill="black" fill-rule="evenodd" d="M 569.043,221.247 L 569.513,221.557 L 570.452,222.177 L 570.212,218.483 L 568.103,220.627 Z "/>
				<path id="dp_path116" fill="black" fill-rule="evenodd" d="M 567.563,227.641 L 569.513,221.557 L 569.043,221.247 L 567.092,227.331 Z "/>
			</g>
			<g id="dp_group117">
				<path id="dp_path118" fill="black" fill-rule="evenodd" d="M 567.123,227.499 L 567.183,217.219"/>
				<g id="dp_group119">
					<path id="dp_path121" fill="black" fill-rule="evenodd" d="M 566.913,220.551 L 567.413,220.553 L 568.413,220.557 L 567.183,217.219 L 565.913,220.547 Z "/>
					<path id="dp_path122" fill="black" fill-rule="evenodd" d="M 567.372,227.5 L 567.413,220.553 L 566.913,220.551 L 566.872,227.497 Z "/>
				</g>
			</g>
			<g id="dp_group113">
				<path id="dp_path115" fill="black" fill-rule="evenodd" d="M 569.332,281.123 L 569.812,281.433 L 570.753,282.053 L 570.513,278.359 L 568.393,280.503 Z "/>
				<path id="dp_path116" fill="black" fill-rule="evenodd" d="M 567.863,287.517 L 569.812,281.433 L 569.332,281.123 L 567.393,287.207 Z "/>
			</g>
			<g id="dp_group117">
				<path id="dp_path118" fill="black" fill-rule="evenodd" d="M 567.423,287.375 L 567.473,277.096"/>
				<g id="dp_group119">
					<path id="dp_path121" fill="black" fill-rule="evenodd" d="M 567.203,280.428 L 567.703,280.429 L 568.703,280.435 L 567.473,277.096 L 566.212,280.424 Z "/>
					<path id="dp_path122" fill="black" fill-rule="evenodd" d="M 567.673,287.376 L 567.703,280.429 L 567.203,280.428 L 567.173,287.375 Z "/>
				</g>
			</g>
			<g id="dp_group117">
				<path id="dp_path118" fill="black" fill-rule="evenodd" d="M 605.112,288.864 L 605.173,278.584"/>
				<g id="dp_group119">
					<path id="dp_path121" fill="black" fill-rule="evenodd" d="M 604.903,281.916 L 605.403,281.919 L 606.403,281.923 L 605.173,278.584 L 603.903,281.912 Z "/>
					<path id="dp_path122" fill="black" fill-rule="evenodd" d="M 605.363,288.865 L 605.403,281.919 L 604.903,281.916 L 604.863,288.863 Z "/>
				</g>
			</g>
		</g>
		<g id="dp_group045">
			<path id="dp_path046" fill="black" fill-rule="evenodd" d="M 534.473,309.471 L 534.983,220.169"/>
			<g id="dp_group047">
				<path id="dp_path049" fill="black" fill-rule="evenodd" d="M 534.413,225.553 L 535.492,225.559 L 537.643,225.572 L 534.983,220.169 L 532.252,225.54 Z "/>
				<path id="dp_path050" fill="black" fill-rule="evenodd" d="M 535.012,309.473 L 535.492,225.559 L 534.413,225.553 L 533.932,309.468 Z "/>
			</g>
		</g>
		<text id="dp_text049" transform="matrix(1,1.41586e-015,-1.41586e-015,1,480.562,267.848)" xml:space="preserve" fill="#e30808" font-family="Arial" font-size="15" font-weight="700" x="0" y="0">r′</text>
		<text id="dp_text050" transform="matrix(1,1.41586e-015,-1.41586e-015,1,480.562,267.848)" xml:space="preserve" fill="#e30808" font-family="Arial" font-size="15" font-weight="700" x="9.4" y="0"> </text>
		<text id="dp_text051" transform="matrix(1,1.41586e-015,-1.41586e-015,1,489.868,267.848)" xml:space="preserve" fill="#e30808" font-family="Arial" font-size="15" font-weight="400" x="0" y="0">  </text>
		<g id="dp_group088">
			<path id="dp_path089" fill="white" fill-rule="evenodd" stroke="black" stroke-width="0.634667" d="M 527.452,307.643 L 534.632,287.404 L 541.972,308.076 L 541.972,308.076 C 542.033,308.301 542.063,308.535 542.063,308.772 C 542.063,311.152 538.732,313.081 534.632,313.081 C 530.523,313.081 527.193,311.152 527.193,308.772 C 527.193,308.38 527.283,308.001 527.452,307.643 Z "/>
			<path id="dp_path090" fill="white" fill-rule="evenodd" stroke="black" stroke-width="0.634667" d="M 534.632,277.889 C 538.732,277.889 542.063,281.217 542.063,285.324 C 542.063,289.431 538.732,292.759 534.632,292.759 C 530.523,292.759 527.193,289.431 527.193,285.324 C 527.193,281.217 530.523,277.889 534.632,277.889 Z "/>
		</g>
		<text id="dp_text052" transform="matrix(1,4.66966e-016,-4.66966e-016,1,289.06,239.504)" xml:space="preserve" fill="black" font-family="Arial" font-size="12" font-weight="400" x="0" y="0">,   </text>
		<text id="dp_text053" transform="matrix(1,4.66966e-016,-4.66966e-016,1,279.484,239.504)" xml:space="preserve" fill="black" font-family="Arial" font-size="12" font-weight="400" x="0" y="0">,   </text>
		<text id="dp_text054" transform="matrix(1,4.66966e-016,-4.66966e-016,1,268.823,239.504)" xml:space="preserve" fill="black" font-family="Arial" font-size="12" font-weight="400" x="0" y="0">,   </text>
		<text id="dp_text055" transform="matrix(1,4.66966e-016,-4.66966e-016,1,292.854,239.504)" xml:space="preserve" fill="black" font-family="Arial" font-size="12" font-weight="400" font-style="italic" x="0" y="0">t </text>
		<text id="dp_text056" transform="matrix(1,4.66966e-016,-4.66966e-016,1,283.64,239.504)" xml:space="preserve" fill="black" font-family="Arial" font-size="12" font-weight="400" font-style="italic" x="0" y="0">z </text>
		<text id="dp_text057" transform="matrix(1,4.66966e-016,-4.66966e-016,1,273.16,239.504)" xml:space="preserve" fill="black" font-family="Arial" font-size="12" font-weight="400" font-style="italic" x="0" y="0">y   </text>
		<path id="dp_path518" fill="black" fill-rule="evenodd" d="M 262.797,242.539 L 262.797,242.876 C 261.827,242.196 261.069,241.199 260.528,239.883 C 259.987,238.567 259.716,237.127 259.716,235.563 C 259.716,233.935 260.001,232.452 260.571,231.116 C 261.14,229.779 261.883,228.824 262.797,228.248 L 262.797,228.577 C 262.337,228.933 261.961,229.42 261.667,230.037 C 261.372,230.655 261.152,231.437 261.007,232.387 C 260.86,233.337 260.788,234.327 260.788,235.359 C 260.788,236.525 260.855,237.58 260.988,238.521 C 261.124,239.464 261.329,240.245 261.605,240.863 C 261.881,241.484 262.279,242.043 262.797,242.539 Z "/>
		<path id="dp_path519" fill="black" fill-rule="evenodd" d="M 297.807,228.577 L 297.807,228.248 C 298.777,228.923 299.535,229.917 300.076,231.233 C 300.617,232.549 300.887,233.989 300.887,235.555 C 300.887,237.181 300.604,238.665 300.035,240.004 C 299.465,241.344 298.721,242.301 297.807,242.876 L 297.807,242.539 C 298.269,242.183 298.648,241.696 298.943,241.079 C 299.237,240.463 299.457,239.681 299.6,238.733 C 299.744,237.785 299.816,236.795 299.816,235.759 C 299.816,234.596 299.751,233.544 299.619,232.6 C 299.485,231.656 299.28,230.873 299.001,230.253 C 298.724,229.633 298.325,229.075 297.807,228.577 Z "/>
		<text id="dp_text058" transform="matrix(1,4.66966e-016,-4.66966e-016,1,263.042,239.504)" xml:space="preserve" fill="black" font-family="Arial" font-size="12" font-weight="400" font-style="italic" x="0" y="0">x   </text>
		<path id="dp_path003" fill="#cbcbcb" fill-rule="evenodd" stroke="none" stroke-width="0.4" d="M 293.843,404.197 L 191.588,404.024 C 187.221,404.013 183.681,400.548 183.681,396.284 L 183.681,372.927 C 183.681,368.663 187.221,365.213 191.588,365.224 L 366.929,365.64 C 371.296,365.651 374.836,369.116 374.836,373.38 L 374.836,396.737 C 374.836,401.001 371.296,404.451 366.929,404.44 L 301.757,404.217 L 317.596,477.773 Z "/>
		<g id="dp_group062">
			<path id="dp_path522" fill="black" fill-rule="evenodd" stroke="black" stroke-width="0.318667" d="M 347.209,384.328 L 361.024,384.328"/>
			<text id="dp_text059" transform="matrix(1,4.66966e-016,-4.66966e-016,1,354.672,392.184)" xml:space="preserve" fill="black" font-family="Arial" font-size="8" font-weight="400" x="0" y="0">2   </text>
			<text id="dp_text060" transform="matrix(1,4.66966e-016,-4.66966e-016,1,313.461,387.197)" xml:space="preserve" fill="black" font-family="Arial" font-size="11" font-weight="400" x="0" y="0">,  </text>
			<text id="dp_text061" transform="matrix(1,4.66966e-016,-4.66966e-016,1,298.293,387.197)" xml:space="preserve" fill="black" font-family="Arial" font-size="11" font-weight="400" x="0" y="0">,   </text>
			<text id="dp_text062" transform="matrix(1,4.66966e-016,-4.66966e-016,1,287.049,387.197)" xml:space="preserve" fill="black" font-family="Arial" font-size="11" font-weight="400" x="0" y="0">,   </text>
			<text id="dp_text063" transform="matrix(1,4.66966e-016,-4.66966e-016,1,217.3,387.197)" xml:space="preserve" fill="black" font-family="Arial" font-size="11" font-weight="400" x="0" y="0">,   </text>
			<text id="dp_text064" transform="matrix(1,4.66966e-016,-4.66966e-016,1,208.132,387.197)" xml:space="preserve" fill="black" font-family="Arial" font-size="11" font-weight="400" x="0" y="0">,   </text>
			<text id="dp_text065" transform="matrix(1,4.66966e-016,-4.66966e-016,1,197.888,387.197)" xml:space="preserve" fill="black" font-family="Arial" font-size="11" font-weight="400" x="0" y="0">,   </text>
			<text id="dp_text066" transform="matrix(1,4.66966e-016,-4.66966e-016,1,347.819,397.352)" xml:space="preserve" fill="black" font-family="Arial" font-size="11" font-weight="400" font-style="italic" x="0" y="0">c   </text>
			<text id="dp_text067" transform="matrix(1,4.66966e-016,-4.66966e-016,1,347.819,379.914)" xml:space="preserve" fill="black" font-family="Arial" font-size="11" font-weight="400" font-style="italic" x="0" y="0">vx′</text>
			<text id="dp_text068" transform="matrix(1,4.66966e-016,-4.66966e-016,1,347.819,379.914)" xml:space="preserve" fill="black" font-family="Arial" font-size="11" font-weight="400" font-style="italic" x="13.1413" y="0"> </text>
			<text id="dp_text069" transform="matrix(1,4.66966e-016,-4.66966e-016,1,360.961,379.914)" xml:space="preserve" fill="black" font-family="Arial" font-size="11" font-weight="400" x="0" y="0">  </text>
			<text id="dp_text070" transform="matrix(1,4.66966e-016,-4.66966e-016,1,359.331,379.914)" xml:space="preserve" fill="black" font-family="Arial" font-size="11" font-weight="400" x="0" y="0">   </text>
			<text id="dp_text071" transform="matrix(1,4.66966e-016,-4.66966e-016,1,331.386,387.197)" xml:space="preserve" fill="black" font-family="Arial" font-size="11" font-weight="400" font-style="italic" x="0" y="0">t′</text>
			<text id="dp_text072" transform="matrix(1,4.66966e-016,-4.66966e-016,1,331.386,387.197)" xml:space="preserve" fill="black" font-family="Arial" font-size="11" font-weight="400" font-style="italic" x="5.16267" y="0"> </text>
			<text id="dp_text073" transform="matrix(1,4.66966e-016,-4.66966e-016,1,336.549,387.197)" xml:space="preserve" fill="black" font-family="Arial" font-size="11" font-weight="400" x="0" y="0">  </text>
			<text id="dp_text074" transform="matrix(1,4.66966e-016,-4.66966e-016,1,305.634,387.197)" xml:space="preserve" fill="black" font-family="Arial" font-size="11" font-weight="400" font-style="italic" x="0" y="0">z′</text>
			<text id="dp_text075" transform="matrix(1,4.66966e-016,-4.66966e-016,1,305.634,387.197)" xml:space="preserve" fill="black" font-family="Arial" font-size="11" font-weight="400" font-style="italic" x="7.62667" y="0"> </text>
			<text id="dp_text076" transform="matrix(1,4.66966e-016,-4.66966e-016,1,313.261,387.197)" xml:space="preserve" fill="black" font-family="Arial" font-size="11" font-weight="400" x="0" y="0">   </text>
			<text id="dp_text077" transform="matrix(1,4.66966e-016,-4.66966e-016,1,291.57,387.197)" xml:space="preserve" fill="black" font-family="Arial" font-size="11" font-weight="400" font-style="italic" x="0" y="0">y′</text>
			<text id="dp_text078" transform="matrix(1,4.66966e-016,-4.66966e-016,1,291.57,387.197)" xml:space="preserve" fill="black" font-family="Arial" font-size="11" font-weight="400" font-style="italic" x="7.62667" y="0"> </text>
			<text id="dp_text079" transform="matrix(1,4.66966e-016,-4.66966e-016,1,299.197,387.197)" xml:space="preserve" fill="black" font-family="Arial" font-size="11" font-weight="400" x="0" y="0">  </text>
			<text id="dp_text080" transform="matrix(1,4.66966e-016,-4.66966e-016,1,270.491,387.197)" xml:space="preserve" fill="black" font-family="Arial" font-size="11" font-weight="400" font-style="italic" x="0" y="0">vt′</text>
			<text id="dp_text081" transform="matrix(1,4.66966e-016,-4.66966e-016,1,270.491,387.197)" xml:space="preserve" fill="black" font-family="Arial" font-size="11" font-weight="400" font-style="italic" x="10.6773" y="0"> </text>
			<text id="dp_text082" transform="matrix(1,4.66966e-016,-4.66966e-016,1,281.169,387.197)" xml:space="preserve" fill="black" font-family="Arial" font-size="11" font-weight="400" x="0" y="0">  </text>
			<text id="dp_text083" transform="matrix(1,4.66966e-016,-4.66966e-016,1,253.413,387.197)" xml:space="preserve" fill="black" font-family="Arial" font-size="11" font-weight="400" font-style="italic" x="0" y="0">x′  </text>
			<text id="dp_text084" transform="matrix(1,4.66966e-016,-4.66966e-016,1,221.282,387.197)" xml:space="preserve" fill="black" font-family="Arial" font-size="11" font-weight="400" font-style="italic" x="0" y="0">t   </text>
			<text id="dp_text085" transform="matrix(1,4.66966e-016,-4.66966e-016,1,211.473,387.197)" xml:space="preserve" fill="black" font-family="Arial" font-size="11" font-weight="400" font-style="italic" x="0" y="0">z   </text>
			<text id="dp_text086" transform="matrix(1,4.66966e-016,-4.66966e-016,1,201.409,387.197)" xml:space="preserve" fill="black" font-family="Arial" font-size="11" font-weight="400" font-style="italic" x="0" y="0">y   </text>
			<path id="dp_path546" fill="black" fill-rule="evenodd" d="M 191.448,390.251 L 191.448,390.587 C 190.488,389.911 189.74,388.919 189.205,387.613 C 188.668,386.305 188.401,384.876 188.401,383.321 C 188.401,381.704 188.683,380.233 189.247,378.905 C 189.809,377.577 190.543,376.629 191.448,376.057 L 191.448,376.384 C 190.996,376.739 190.624,377.221 190.333,377.835 C 190.041,378.448 189.825,379.225 189.681,380.168 C 189.537,381.112 189.467,382.095 189.467,383.119 C 189.467,384.279 189.532,385.325 189.664,386.26 C 189.797,387.196 189.999,387.972 190.272,388.587 C 190.545,389.203 190.936,389.757 191.448,390.251 Z "/>
			<path id="dp_path548" fill="black" fill-rule="evenodd" d="M 253.159,390.251 L 253.159,390.587 C 252.197,389.911 251.449,388.919 250.915,387.613 C 250.379,386.305 250.111,384.876 250.111,383.321 C 250.111,381.704 250.393,380.233 250.956,378.905 C 251.519,377.577 252.253,376.629 253.159,376.057 L 253.159,376.384 C 252.705,376.739 252.333,377.221 252.043,377.835 C 251.752,378.448 251.536,379.225 251.392,380.168 C 251.247,381.112 251.176,382.095 251.176,383.119 C 251.176,384.279 251.243,385.325 251.375,386.26 C 251.507,387.196 251.709,387.972 251.983,388.587 C 252.255,389.203 252.645,389.757 253.159,390.251 Z "/>
			<path id="dp_path549" fill="black" fill-rule="evenodd" d="M 283.136,376.384 L 283.136,376.057 C 284.097,376.728 284.844,377.716 285.38,379.023 C 285.916,380.329 286.183,381.76 286.183,383.313 C 286.183,384.931 285.901,386.403 285.339,387.733 C 284.775,389.064 284.041,390.013 283.136,390.587 L 283.136,390.251 C 283.592,389.896 283.967,389.413 284.257,388.801 C 284.548,388.188 284.765,387.411 284.905,386.471 C 285.048,385.531 285.117,384.547 285.117,383.517 C 285.117,382.363 285.053,381.316 284.923,380.38 C 284.791,379.441 284.589,378.664 284.315,378.048 C 284.041,377.433 283.648,376.879 283.136,376.384 Z "/>
			<path id="dp_path565" fill="black" fill-rule="evenodd" d="M 324.752,382.049 L 325.697,382.049 C 325.639,382.184 325.331,382.824 324.775,383.968 C 324.543,384.445 324.377,384.809 324.276,385.056 C 324.231,385.157 324.181,385.267 324.125,385.387 L 323.481,386.765 C 323.507,387.005 323.525,387.227 323.537,387.428 C 323.548,387.629 323.555,387.812 323.556,387.977 C 323.556,388.485 323.519,388.877 323.443,389.155 C 323.391,389.349 323.323,389.483 323.236,389.556 C 323.149,389.628 323.056,389.664 322.956,389.664 C 322.832,389.664 322.723,389.612 322.627,389.507 C 322.532,389.403 322.484,389.268 322.484,389.104 C 322.484,388.816 322.543,388.485 322.659,388.108 C 322.773,387.733 322.944,387.312 323.173,386.844 C 322.9,384.928 322.683,383.771 322.52,383.373 C 322.359,382.976 322.135,382.776 321.847,382.776 C 321.671,382.776 321.532,382.831 321.432,382.939 C 321.332,383.045 321.255,383.289 321.201,383.667 L 320.983,383.667 C 320.976,383.555 320.972,383.471 320.972,383.413 C 320.972,382.897 321.073,382.508 321.276,382.245 C 321.429,382.052 321.635,381.955 321.892,381.955 C 322.117,381.955 322.3,382.021 322.443,382.156 C 322.637,382.347 322.811,382.761 322.965,383.401 C 323.159,384.232 323.311,385.135 323.42,386.111 L 323.908,384.445 C 324.125,383.697 324.407,382.899 324.752,382.049 Z "/>
			<path id="dp_path567" fill="black" fill-rule="evenodd" d="M 248.248,382.049 L 249.196,382.049 C 249.136,382.184 248.829,382.824 248.272,383.968 C 248.04,384.445 247.875,384.809 247.773,385.056 C 247.729,385.157 247.679,385.267 247.621,385.387 L 246.979,386.765 C 247.004,387.005 247.023,387.227 247.035,387.428 C 247.045,387.629 247.052,387.812 247.053,387.977 C 247.053,388.485 247.016,388.877 246.941,389.155 C 246.888,389.349 246.819,389.483 246.733,389.556 C 246.647,389.628 246.553,389.664 246.453,389.664 C 246.329,389.664 246.219,389.612 246.125,389.507 C 246.029,389.403 245.981,389.268 245.981,389.104 C 245.981,388.816 246.04,388.485 246.156,388.108 C 246.272,387.733 246.443,387.312 246.669,386.844 C 246.397,384.928 246.181,383.771 246.017,383.373 C 245.856,382.976 245.631,382.776 245.344,382.776 C 245.169,382.776 245.031,382.831 244.929,382.939 C 244.828,383.045 244.752,383.289 244.7,383.667 L 244.48,383.667 C 244.472,383.555 244.471,383.471 244.471,383.413 C 244.471,382.897 244.572,382.508 244.773,382.245 C 244.925,382.052 245.132,381.955 245.391,381.955 C 245.616,381.955 245.797,382.021 245.94,382.156 C 246.135,382.347 246.309,382.761 246.463,383.401 C 246.657,384.232 246.808,385.135 246.917,386.111 L 247.404,384.445 C 247.623,383.697 247.904,382.899 248.248,382.049 Z "/>
			<path id="dp_path568" fill="black" fill-rule="evenodd" d="M 231.836,382.241 L 237.883,382.241 L 237.883,382.7 L 231.836,382.7 Z M 231.836,384.068 L 237.883,384.068 L 237.883,384.528 L 231.836,384.528 Z "/>
			<text id="dp_text087" transform="matrix(0.916644,4.28041e-016,-4.66966e-016,1,191.703,387.197)" xml:space="preserve" fill="black" font-family="Arial" font-size="11" font-weight="400" font-style="italic" x="0" y="0">x   </text>
			<path id="dp_path092" fill="black" fill-rule="evenodd" d="M 366.4,388.653 L 365.853,388.653 L 365.853,377.088 L 366.4,377.088 Z M 371.781,392.671 L 371.725,392.671 C 371.66,393.389 371.539,394.1 371.361,394.801 C 371.121,395.759 370.785,396.597 370.351,397.319 C 369.915,398.04 369.404,398.648 368.819,399.141 C 368.396,399.504 367.911,399.799 367.361,400.028 L 367.237,399.912 C 368.291,399.188 369.127,398.337 369.747,397.361 C 370.24,396.581 370.611,395.644 370.861,394.553 C 371.111,393.463 371.236,392.455 371.236,391.528 L 371.236,388.461 L 371.236,381.105 L 371.236,377.088 L 371.235,376.867 C 371.215,375.763 371.06,374.687 370.765,373.64 C 370.452,372.523 369.981,371.54 369.355,370.696 C 368.813,369.964 368.107,369.297 367.237,368.7 L 367.361,368.585 C 368.261,368.963 369.061,369.583 369.761,370.447 C 370.461,371.309 370.975,372.355 371.297,373.583 C 371.505,374.377 371.647,375.163 371.721,375.94 L 371.781,375.94 L 371.781,381.105 L 371.781,388.461 L 371.781,391.415 Z "/>
			<path id="dp_path093" fill="black" fill-rule="evenodd" d="M 366.4,387.313 L 366.4,390.268 C 366.4,391.419 366.26,392.548 365.98,393.653 C 365.74,394.609 365.403,395.449 364.968,396.171 C 364.533,396.892 364.023,397.5 363.437,397.992 C 363.015,398.355 362.529,398.652 361.98,398.879 L 361.856,398.764 C 362.909,398.039 363.745,397.189 364.364,396.213 C 364.857,395.433 365.228,394.497 365.479,393.407 C 365.729,392.315 365.853,391.307 365.853,390.38 L 365.853,387.313 Z M 366.4,381.299 L 365.853,381.299 L 365.853,378.236 C 365.853,377.055 365.697,375.907 365.384,374.788 C 365.069,373.671 364.6,372.689 363.972,371.844 C 363.431,371.112 362.725,370.445 361.856,369.848 L 361.98,369.733 C 362.88,370.111 363.68,370.731 364.38,371.595 C 365.08,372.457 365.592,373.504 365.915,374.731 C 366.237,375.959 366.4,377.165 366.4,378.349 Z "/>
			<path id="dp_path094" fill="black" fill-rule="evenodd" d="M 327.019,387.313 L 327.019,390.38 C 327.019,391.56 327.176,392.709 327.491,393.827 C 327.805,394.943 328.276,395.924 328.903,396.769 C 329.444,397.497 330.148,398.163 331.017,398.764 L 330.893,398.879 C 329.993,398.501 329.193,397.883 328.493,397.02 C 327.792,396.159 327.281,395.113 326.957,393.883 C 326.635,392.655 326.473,391.449 326.473,390.268 L 326.473,387.313 L 326.473,381.299 L 326.473,378.349 L 326.473,377.088 L 326.531,377.088 C 326.595,376.369 326.716,375.66 326.893,374.959 C 327.133,374.005 327.469,373.167 327.905,372.447 C 328.34,371.724 328.849,371.117 329.431,370.625 C 329.857,370.261 330.344,369.965 330.893,369.733 L 331.017,369.848 C 329.967,370.572 329.131,371.424 328.512,372.399 C 328.019,373.181 327.648,374.117 327.396,375.209 C 327.144,376.3 327.019,377.309 327.019,378.236 L 327.019,381.299 Z "/>
			<path id="dp_path095" fill="black" fill-rule="evenodd" d="M 241.62,392.625 C 241.687,393.423 241.828,394.204 242.045,394.973 C 242.36,396.091 242.832,397.072 243.457,397.916 C 243.997,398.645 244.703,399.311 245.572,399.912 L 245.448,400.028 C 244.547,399.649 243.747,399.031 243.047,398.168 C 242.348,397.308 241.835,396.261 241.512,395.032 C 241.303,394.235 241.161,393.447 241.088,392.671 L 241.028,392.671 L 241.028,391.415 L 241.028,388.461 L 241.028,381.105 L 241.028,380.151 L 241.028,377.201 L 241.028,375.94 L 241.084,375.94 C 241.148,375.221 241.269,374.511 241.448,373.809 C 241.687,372.857 242.024,372.02 242.459,371.297 C 242.895,370.576 243.403,369.969 243.987,369.477 C 244.411,369.113 244.897,368.816 245.448,368.585 L 245.572,368.7 C 244.52,369.425 243.685,370.276 243.067,371.251 C 242.573,372.032 242.203,372.968 241.951,374.06 C 241.699,375.152 241.573,376.161 241.573,377.088 L 241.573,380.151 L 241.573,381.105 L 241.573,388.461 L 241.573,391.528 C 241.573,391.896 241.588,392.263 241.62,392.625 Z "/>
			<path id="dp_path547" fill="black" fill-rule="evenodd" d="M 225.16,376.384 L 225.16,376.057 C 226.121,376.728 226.868,377.716 227.404,379.023 C 227.94,380.329 228.207,381.76 228.207,383.313 C 228.207,384.931 227.925,386.403 227.363,387.733 C 226.8,389.064 226.065,390.013 225.16,390.587 L 225.16,390.251 C 225.616,389.896 225.991,389.413 226.283,388.801 C 226.572,388.188 226.789,387.411 226.931,386.471 C 227.072,385.531 227.143,384.547 227.143,383.517 C 227.143,382.363 227.077,381.316 226.947,380.38 C 226.815,379.441 226.613,378.664 226.339,378.048 C 226.065,377.433 225.672,376.879 225.16,376.384 Z "/>
			<text id="dp_text088" transform="matrix(1,4.66966e-016,-4.66966e-016,1,262.261,388.123)" xml:space="preserve" fill="black" font-family="Arial" font-size="11" font-weight="400" x="0" y="0">+  </text>
			<text id="dp_text089" transform="matrix(1,4.66966e-016,-4.66966e-016,1,338.187,388.123)" xml:space="preserve" fill="black" font-family="Arial" font-size="11" font-weight="400" x="0" y="0">+  </text>
		</g>
		<path id="dp_path019" fill="none" fill-rule="evenodd" stroke="#e30808" stroke-width="1.07733" stroke-dasharray="6.464,3.8784" d="M 296.263,518.409 L 663.352,518.423"/>
		<path id="dp_path018" fill="#cbcbcb" fill-rule="evenodd" stroke="none" stroke-width="0.533333" d="M 456.223,384.672 L 456.932,399.048 L 462.772,396.673 L 461.593,402.824 L 475.923,400.635 L 463.732,408.401 L 468.732,412.232 L 462.783,414.284 L 471.883,425.505 L 458.983,418.899 L 458.153,425.104 L 453.372,421.007 L 448.153,434.419 L 447.443,420.044 L 441.612,422.419 L 442.783,416.268 L 428.463,418.457 L 440.643,410.691 L 435.643,406.86 L 441.603,404.808 L 432.492,393.585 L 445.393,400.193 L 446.223,393.988 L 451.003,398.085 Z "/>
		<g id="dp_group020">
			<path id="dp_path021" fill="black" fill-rule="evenodd" d="M 535.123,518.037 L 624.052,484.445"/>
			<g id="dp_group022">
				<path id="dp_path024" fill="black" fill-rule="evenodd" d="M 618.823,485.845 L 619.203,486.853 L 619.963,488.868 L 624.052,484.445 L 618.063,483.829 Z "/>
				<path id="dp_path025" fill="black" fill-rule="evenodd" d="M 535.313,518.541 L 619.203,486.853 L 618.823,485.845 L 534.932,517.533 Z "/>
			</g>
		</g>
		<g id="dp_group051">
			<path id="dp_path053" fill="black" fill-rule="evenodd" d="M 629.003,517.667 L 629.003,518.744 L 629.003,520.899 L 634.393,518.213 L 629.003,515.512 Z "/>
			<path id="dp_path054" fill="black" fill-rule="evenodd" d="M 535.123,518.607 L 629.003,518.744 L 629.003,517.667 L 535.123,517.529 Z "/>
		</g>
		<text id="dp_text090" transform="matrix(1,1.41586e-015,-1.41586e-015,1,636.532,531.233)" xml:space="preserve" fill="black" font-family="Arial" font-size="15" font-weight="400" font-style="italic" x="0" y="0">x′   </text>
		<text id="dp_text091" transform="matrix(1,1.41586e-015,-1.41586e-015,1,629.362,481.51)" xml:space="preserve" fill="black" font-family="Arial" font-size="15" font-weight="400" font-style="italic" x="0" y="0">y′</text>
		<text id="dp_text092" transform="matrix(1,1.41586e-015,-1.41586e-015,1,629.362,481.51)" xml:space="preserve" fill="black" font-family="Arial" font-size="15" font-weight="400" font-style="italic" x="10.4" y="0"> </text>
		<text id="dp_text093" transform="matrix(1,1.41586e-015,-1.41586e-015,1,639.762,481.51)" xml:space="preserve" fill="#1e02ab" font-family="Arial" font-size="15" font-weight="400" x="0" y="0">  </text>
		<text id="dp_text094" transform="matrix(1,1.41586e-015,-1.41586e-015,1,639.472,481.51)" xml:space="preserve" fill="#1e02ab" font-family="Arial" font-size="15" font-weight="400" x="0" y="0">   </text>
		<text id="dp_text095" transform="matrix(1,1.41586e-015,-1.41586e-015,1,531.992,419.25)" xml:space="preserve" fill="black" font-family="Arial" font-size="15" font-weight="400" font-style="italic" x="0" y="0">z′</text>
		<text id="dp_text096" transform="matrix(1,1.41586e-015,-1.41586e-015,1,531.992,419.25)" xml:space="preserve" fill="black" font-family="Arial" font-size="15" font-weight="400" font-style="italic" x="10.4" y="0"> </text>
		<text id="dp_text097" transform="matrix(1,1.41586e-015,-1.41586e-015,1,542.392,419.25)" xml:space="preserve" fill="#1e02ab" font-family="Arial" font-size="15" font-weight="400" x="0" y="0">  </text>
		<text id="dp_text098" transform="matrix(1,1.41586e-015,-1.41586e-015,1,542.102,419.25)" xml:space="preserve" fill="#1e02ab" font-family="Arial" font-size="15" font-weight="400" x="0" y="0">   </text>
		<g id="dp_group082">
			<path id="dp_path083" fill="black" fill-rule="evenodd" d="M 453.913,408.123 L 536.483,517.824"/>
			<g id="dp_group084">
				<path id="dp_path086" fill="black" fill-rule="evenodd" d="M 457.233,414.139 L 458.783,412.971 L 463.053,412.188 L 453.913,408.123 L 455.293,418.027 Z "/>
				<path id="dp_path087" fill="black" fill-rule="evenodd" d="M 457.233,414.139 L 535.703,518.408 L 537.252,517.24 L 458.783,412.971 Z "/>
			</g>
		</g>
		<g id="dp_group188">
			<path id="dp_path189" fill="#f5b300" fill-rule="evenodd" d="M 325.887,518.137 L 414.823,484.545"/>
			<g id="dp_group190">
				<path id="dp_path192" fill="black" fill-rule="evenodd" d="M 409.593,485.945 L 409.972,486.953 L 410.732,488.968 L 414.823,484.545 L 408.833,483.929 Z "/>
				<path id="dp_path193" fill="black" fill-rule="evenodd" d="M 326.077,518.641 L 409.972,486.953 L 409.593,485.945 L 325.696,517.633 Z "/>
			</g>
		</g>
		<path id="dp_path195" fill="white" fill-rule="evenodd" stroke="black" stroke-width="0.4" d="M 588.283,501.077 C 582.523,501.105 577.833,495.836 577.803,489.307 C 577.763,482.777 582.413,477.463 588.173,477.435 L 591.452,477.419 C 597.212,477.391 601.903,482.66 601.932,489.189 C 601.972,495.719 597.323,501.033 591.572,501.061 Z "/>
		<path id="dp_path196" fill="white" fill-rule="evenodd" stroke="black" stroke-width="0.4" d="M 588.173,477.435 C 593.923,477.407 598.623,482.676 598.653,489.205 C 598.683,495.735 594.043,501.049 588.283,501.077"/>
		<g id="dp_group209">
			<path id="dp_path210" fill="#fffffe" fill-rule="evenodd" stroke="black" stroke-width="0.4" d="M 560.273,499.035 L 588.123,487.783 L 588.143,492.883 L 560.303,504.136 Z "/>
			<path id="dp_path211" fill="#fffffe" fill-rule="evenodd" stroke="black" stroke-width="0.4" d="M 560.283,501.1 L 560.303,504.139 L 588.123,492.895 L 588.103,489.856M 562.833,503.115 L 562.823,501.377M 565.352,502.093 L 565.352,500.356M 567.883,501.072 L 567.872,499.333M 570.413,500.049 L 570.403,498.311M 572.943,499.027 L 572.932,497.289M 575.473,498.005 L 575.463,496.268M 578.003,496.984 L 577.993,495.245M 580.532,495.961 L 580.523,494.223M 583.063,494.939 L 583.052,493.201M 585.593,493.917 L 585.583,492.18"/>
		</g>
		<path id="dp_path228" fill="white" fill-rule="evenodd" stroke="black" stroke-width="0.4" d="M 560.292,512.255 C 554.543,512.283 549.843,507.013 549.812,500.484 C 549.783,493.955 554.423,488.64 560.183,488.612 L 563.463,488.596 C 569.223,488.568 573.923,493.837 573.953,500.365 C 573.983,506.895 569.343,512.209 563.583,512.239 Z "/>
		<path id="dp_path229" fill="white" fill-rule="evenodd" stroke="black" stroke-width="0.4" d="M 560.183,488.612 C 565.943,488.584 570.632,493.853 570.673,500.381 C 570.703,506.911 566.052,512.225 560.292,512.255"/>
		<g id="dp_group242">
			<path id="dp_path243" fill="#fffffe" fill-rule="evenodd" stroke="black" stroke-width="0.4" d="M 573.033,498.855 L 609.932,498.675 L 609.953,503.776 L 573.063,503.956 Z "/>
			<path id="dp_path244" fill="white" fill-rule="evenodd" stroke="black" stroke-width="0.4" d="M 573.043,500.917 L 573.052,503.956 L 609.923,503.776 L 609.913,500.737M 576.413,503.939 L 576.403,502.2M 579.763,503.923 L 579.753,502.184M 583.112,503.907 L 583.103,502.168M 586.463,503.891 L 586.452,502.152M 589.812,503.873 L 589.803,502.135M 593.163,503.857 L 593.163,502.119M 596.523,503.841 L 596.513,502.103M 599.872,503.824 L 599.863,502.087M 603.223,503.808 L 603.212,502.069M 606.572,503.792 L 606.563,502.053"/>
		</g>
		<path id="dp_path246" fill="white" fill-rule="evenodd" stroke="black" stroke-width="0.4" d="M 620.083,513.149 C 614.323,513.179 609.623,507.909 609.593,501.38 C 609.563,494.851 614.203,489.536 619.963,489.508 L 623.252,489.492 C 629.003,489.464 633.703,494.732 633.732,501.261 C 633.763,507.791 629.123,513.105 623.363,513.133 Z "/>
		<path id="dp_path247" fill="white" fill-rule="evenodd" stroke="black" stroke-width="0.4" d="M 619.963,489.508 C 625.723,489.48 630.413,494.748 630.452,501.277 C 630.483,507.807 625.833,513.121 620.083,513.149"/>
		<g id="dp_group260">
			<path id="dp_path261" fill="#fffffe" fill-rule="evenodd" stroke="black" stroke-width="0.4" d="M 558.883,488.724 L 558.703,451.825 L 563.803,451.8 L 563.983,488.699 Z "/>
			<path id="dp_path262" fill="#fffffe" fill-rule="evenodd" stroke="black" stroke-width="0.4" d="M 560.943,488.715 L 563.983,488.7 L 563.803,451.832 L 560.763,451.847M 563.972,485.349 L 562.233,485.357M 563.953,481.997 L 562.212,482.005M 563.932,478.645 L 562.193,478.653M 563.923,475.295 L 562.183,475.303M 563.903,471.943 L 562.163,471.951M 563.883,468.591 L 562.153,468.599M 563.872,465.239 L 562.132,465.247M 563.852,461.888 L 562.112,461.896M 563.833,458.536 L 562.103,458.545M 563.823,455.184 L 562.083,455.193"/>
		</g>
		<path id="dp_path264" fill="#fffffe" fill-rule="evenodd" stroke="black" stroke-width="0.4" d="M 559.983,452.043 C 554.223,452.071 549.523,446.801 549.492,440.273 C 549.463,433.744 554.103,428.429 559.863,428.4 L 563.153,428.384 C 568.903,428.356 573.603,433.625 573.632,440.155 C 573.663,446.684 569.023,451.999 563.263,452.027 Z "/>
		<path id="dp_path265" fill="#fffffe" fill-rule="evenodd" stroke="black" stroke-width="0.4" d="M 559.863,428.4 C 565.623,428.372 570.313,433.641 570.352,440.171 C 570.383,446.7 565.743,452.015 559.983,452.043"/>
		<g id="dp_group106">
			<path id="dp_path198" fill="black" fill-rule="evenodd" d="M 588.092,489.531 L 597.452,485.275"/>
			<g id="dp_group199">
				<path id="dp_path201" fill="black" fill-rule="evenodd" d="M 594.283,486.352 L 594.563,486.959 L 595.112,488.172 L 597.452,485.275 L 593.732,485.139 Z "/>
				<path id="dp_path202" fill="black" fill-rule="evenodd" d="M 588.233,489.833 L 594.563,486.959 L 594.283,486.352 L 587.963,489.227 Z "/>
			</g>
			<g id="dp_group203">
				<path id="dp_path204" fill="black" fill-rule="evenodd" d="M 588.292,489.664 L 588.243,479.384"/>
				<g id="dp_group205">
					<path id="dp_path207" fill="black" fill-rule="evenodd" d="M 587.923,482.719 L 588.593,482.716 L 589.923,482.709 L 588.243,479.384 L 586.593,482.725 Z "/>
					<path id="dp_path208" fill="black" fill-rule="evenodd" d="M 588.623,489.663 L 588.593,482.716 L 587.923,482.719 L 587.953,489.665 Z "/>
				</g>
			</g>
			<g id="dp_group230">
				<path id="dp_path231" fill="black" fill-rule="evenodd" d="M 560.112,500.707 L 569.473,496.452"/>
				<g id="dp_group232">
					<path id="dp_path234" fill="black" fill-rule="evenodd" d="M 566.303,497.528 L 566.572,498.135 L 567.123,499.348 L 569.473,496.452 L 565.743,496.315 Z "/>
					<path id="dp_path235" fill="black" fill-rule="evenodd" d="M 560.252,501.011 L 566.572,498.135 L 566.303,497.528 L 559.972,500.404 Z "/>
				</g>
			</g>
			<g id="dp_group236">
				<path id="dp_path237" fill="black" fill-rule="evenodd" d="M 560.303,500.84 L 560.252,490.561"/>
				<g id="dp_group238">
					<path id="dp_path240" fill="black" fill-rule="evenodd" d="M 559.932,493.896 L 560.603,493.892 L 561.932,493.885 L 560.252,490.561 L 558.603,493.903 Z "/>
					<path id="dp_path241" fill="black" fill-rule="evenodd" d="M 560.632,500.839 L 560.603,493.892 L 559.932,493.896 L 559.972,500.843 Z "/>
				</g>
			</g>
			<g id="dp_group248">
				<path id="dp_path249" fill="black" fill-rule="evenodd" d="M 619.893,501.603 L 629.252,497.348"/>
				<g id="dp_group250">
					<path id="dp_path252" fill="black" fill-rule="evenodd" d="M 626.083,498.424 L 626.352,499.031 L 626.913,500.244 L 629.252,497.348 L 625.532,497.211 Z "/>
					<path id="dp_path253" fill="black" fill-rule="evenodd" d="M 620.033,501.907 L 626.352,499.031 L 626.083,498.424 L 619.753,501.3 Z "/>
				</g>
			</g>
			<g id="dp_group254">
				<path id="dp_path255" fill="black" fill-rule="evenodd" d="M 620.083,501.736 L 620.033,491.456"/>
				<g id="dp_group256">
					<path id="dp_path258" fill="black" fill-rule="evenodd" d="M 619.713,494.792 L 620.383,494.788 L 621.713,494.781 L 620.033,491.456 L 618.383,494.799 Z "/>
					<path id="dp_path259" fill="black" fill-rule="evenodd" d="M 620.413,501.735 L 620.383,494.788 L 619.713,494.792 L 619.753,501.739 Z "/>
				</g>
			</g>
			<g id="dp_group266">
				<path id="dp_path267" fill="black" fill-rule="evenodd" d="M 559.793,440.496 L 569.153,436.24"/>
				<g id="dp_group268">
					<path id="dp_path270" fill="black" fill-rule="evenodd" d="M 565.983,437.317 L 566.252,437.924 L 566.812,439.137 L 569.153,436.24 L 565.433,436.104 Z "/>
					<path id="dp_path271" fill="black" fill-rule="evenodd" d="M 559.932,440.799 L 566.252,437.924 L 565.983,437.317 L 559.653,440.192 Z "/>
				</g>
			</g>
			<g id="dp_group272">
				<path id="dp_path273" fill="black" fill-rule="evenodd" d="M 559.983,440.629 L 559.932,430.349"/>
				<g id="dp_group274">
					<path id="dp_path276" fill="black" fill-rule="evenodd" d="M 559.623,433.684 L 560.283,433.681 L 561.612,433.675 L 559.932,430.349 L 558.283,433.691 Z "/>
					<path id="dp_path277" fill="black" fill-rule="evenodd" d="M 560.313,440.628 L 560.283,433.681 L 559.623,433.684 L 559.653,440.631 Z "/>
				</g>
			</g>
		</g>
		<g id="dp_group212">
			<path id="dp_path213" fill="#f5b300" fill-rule="evenodd" d="M 325.905,518.237 L 326.413,428.936"/>
			<g id="dp_group214">
				<path id="dp_path216" fill="black" fill-rule="evenodd" d="M 325.844,434.32 L 326.921,434.325 L 329.076,434.339 L 326.413,428.936 L 323.689,434.307 Z "/>
				<path id="dp_path217" fill="black" fill-rule="evenodd" d="M 326.444,518.24 L 326.921,434.325 L 325.844,434.32 L 325.367,518.235 Z "/>
			</g>
		</g>
		<g id="dp_group218">
			<path id="dp_path219" fill="#f5b300" fill-rule="evenodd" d="M 325.892,518.168 L 425.153,518.313"/>
			<g id="dp_group220">
				<path id="dp_path222" fill="black" fill-rule="evenodd" d="M 419.772,517.767 L 419.772,518.844 L 419.763,520.999 L 425.153,518.313 L 419.772,515.612 Z "/>
				<path id="dp_path223" fill="black" fill-rule="evenodd" d="M 325.891,518.707 L 419.772,518.844 L 419.772,517.767 L 325.893,517.629 Z "/>
			</g>
		</g>
		<g id="dp_group103">
			<text id="dp_text099" transform="matrix(1,1.41586e-015,-1.41586e-015,1,425.962,531.999)" xml:space="preserve" fill="black" font-family="Arial" font-size="15" font-weight="400" font-style="italic" x="0" y="0">x   </text>
			<text id="dp_text100" transform="matrix(1,1.41586e-015,-1.41586e-015,1,420.132,481.61)" xml:space="preserve" fill="black" font-family="Arial" font-size="15" font-weight="400" font-style="italic" x="0" y="0">y   </text>
			<text id="dp_text101" transform="matrix(1,1.41586e-015,-1.41586e-015,1,322.761,419.35)" xml:space="preserve" fill="black" font-family="Arial" font-size="15" font-weight="400" font-style="italic" x="0" y="0">z   </text>
			<text id="dp_text102" transform="matrix(0.996663,1.41157e-015,-1.41586e-015,1,301.51,543.839)" xml:space="preserve" fill="black" font-family="Arial" font-size="26" font-weight="400" x="0" y="0">F  </text>
		</g>
		<path id="dp_path279" fill="#e30808" fill-rule="evenodd" d="M 451.932,408.747 L 326.448,518.348"/>
		<path id="dp_path287" fill="#e30808" fill-rule="evenodd" stroke="none" stroke-width="0.481333" d="M 353.596,547.189 L 365.601,542.256 L 365.615,545.695 L 422.313,545.467 L 422.323,548.357 L 365.627,548.585 L 365.64,552.024 Z "/>
		<text id="dp_text103" transform="matrix(0.996359,1.4107e-015,-1.41586e-015,1,507.432,546.292)" xml:space="preserve" fill="black" font-family="Arial" font-size="26" font-weight="400" x="0" y="0">F′</text>
		<text id="dp_text104" transform="matrix(0.996499,1.4109e-015,-1.41586e-015,1,507.505,546.292)" xml:space="preserve" fill="black" font-family="Arial" font-size="26" font-weight="400" x="20.7307" y="0"> </text>
		<text id="dp_text105" transform="matrix(0.996499,1.4109e-015,-1.41586e-015,1,529.483,546.292)" xml:space="preserve" fill="#1e02ab" font-family="Arial" font-size="26" font-weight="400" x="0" y="0">  </text>
		<text id="dp_text106" transform="matrix(0.996499,1.4109e-015,-1.41586e-015,1,591.582,543.892)" xml:space="preserve" fill="black" font-family="Arial" font-size="26" font-weight="400" x="0" y="0">   </text>
		<text id="dp_text107" transform="translate(335,550.704)" xml:space="preserve" fill="#e30808" font-family="Arial" font-size="15" font-weight="700" x="0" y="0">−v  </text>
		<path id="dp_path027" fill="white" fill-rule="evenodd" stroke="black" stroke-width="0.4" d="M 375.201,499.552 C 370.884,499.533 367.413,494.227 367.448,487.697 C 367.483,481.168 371.011,475.891 375.327,475.909 L 377.793,475.92 C 382.103,475.939 385.572,481.245 385.543,487.775 C 385.503,494.304 381.983,499.581 377.663,499.563 Z "/>
		<path id="dp_path028" fill="white" fill-rule="evenodd" stroke="black" stroke-width="0.4" d="M 375.327,475.909 C 379.643,475.928 383.113,481.235 383.083,487.764 C 383.043,494.293 379.513,499.571 375.201,499.552"/>
		<path id="dp_path043" fill="white" fill-rule="evenodd" stroke="black" stroke-width="0.4" d="M 354.387,497.3 L 375.357,486.275 L 375.331,491.375 L 354.36,502.4 Z "/>
		<path id="dp_path044" fill="white" fill-rule="evenodd" stroke="black" stroke-width="0.4" d="M 354.375,499.364 L 354.359,502.403 L 375.312,491.387 L 375.328,488.348M 356.264,501.401 L 356.273,499.664M 358.168,500.4 L 358.177,498.663M 360.073,499.399 L 360.083,497.66M 361.979,498.397 L 361.988,496.659M 363.884,497.395 L 363.892,495.657M 365.788,496.393 L 365.797,494.656M 367.692,495.392 L 367.701,493.653M 369.597,494.392 L 369.607,492.653M 371.501,493.389 L 371.511,491.652M 373.407,492.388 L 373.416,490.651"/>
		<path id="dp_path061" fill="white" fill-rule="evenodd" stroke="black" stroke-width="0.4" d="M 354.231,510.561 C 349.915,510.543 346.443,505.236 346.477,498.707 C 346.512,492.177 350.04,486.9 354.356,486.919 L 356.817,486.929 C 361.133,486.948 364.605,492.255 364.571,498.784 C 364.536,505.313 361.008,510.591 356.692,510.572 Z "/>
		<path id="dp_path062" fill="white" fill-rule="evenodd" stroke="black" stroke-width="0.4" d="M 354.356,486.919 C 358.672,486.937 362.144,492.245 362.109,498.773 C 362.075,505.303 358.547,510.58 354.231,510.561"/>
		<path id="dp_path077" fill="white" fill-rule="evenodd" stroke="black" stroke-width="0.4" d="M 363.951,497.223 L 384.343,497.311 L 384.313,502.412 L 363.923,502.324 Z "/>
		<path id="dp_path078" fill="white" fill-rule="evenodd" stroke="black" stroke-width="0.4" d="M 363.939,499.285 L 363.923,502.324 L 384.292,502.412 L 384.313,499.373M 365.775,502.332 L 365.784,500.593M 367.627,502.34 L 367.636,500.601M 369.479,502.348 L 369.488,500.609M 371.331,502.356 L 371.34,500.617M 373.183,502.364 L 373.192,500.625M 375.035,502.372 L 375.044,500.633M 376.887,502.38 L 376.896,500.641M 378.743,502.388 L 378.753,500.649M 380.593,502.396 L 380.603,500.657M 382.443,502.404 L 382.452,500.665"/>
		<path id="dp_path080" fill="white" fill-rule="evenodd" stroke="black" stroke-width="0.4" d="M 353.436,486.977 L 353.633,450.08 L 357.456,450.096 L 357.26,486.995 Z "/>
		<path id="dp_path081" fill="white" fill-rule="evenodd" stroke="black" stroke-width="0.4" d="M 354.983,486.985 L 357.26,486.996 L 357.456,450.128 L 355.179,450.119M 357.277,483.645 L 355.975,483.64M 357.296,480.293 L 355.992,480.288M 357.313,476.941 L 356.011,476.936M 357.332,473.591 L 356.028,473.585M 357.349,470.239 L 356.047,470.233M 357.367,466.887 L 356.064,466.881M 357.385,463.535 L 356.081,463.529M 357.403,460.184 L 356.1,460.179M 357.42,456.832 L 356.117,456.827M 357.439,453.48 L 356.135,453.475"/>
		<path id="dp_path092" fill="white" fill-rule="evenodd" stroke="black" stroke-width="0.4" d="M 353.896,450.684 C 349.58,450.665 346.108,445.357 346.143,438.829 C 346.177,432.3 349.705,427.023 354.021,427.041 L 356.483,427.052 C 360.799,427.071 364.271,432.377 364.236,438.907 C 364.201,445.436 360.673,450.713 356.357,450.695 Z "/>
		<path id="dp_path093" fill="white" fill-rule="evenodd" stroke="black" stroke-width="0.4" d="M 354.021,427.041 C 358.337,427.06 361.809,432.367 361.775,438.896 C 361.74,445.425 358.212,450.703 353.896,450.684"/>
		<path id="dp_path108" fill="white" fill-rule="evenodd" stroke="black" stroke-width="0.4" d="M 391.913,512.124 C 387.603,512.105 384.132,506.799 384.163,500.269 C 384.193,493.74 387.723,488.463 392.043,488.481 L 394.503,488.492 C 398.823,488.511 402.292,493.817 402.252,500.347 C 402.223,506.876 398.692,512.153 394.372,512.135 Z "/>
		<path id="dp_path109" fill="white" fill-rule="evenodd" stroke="black" stroke-width="0.4" d="M 392.043,488.481 C 396.363,488.5 399.833,493.807 399.793,500.336 C 399.763,506.865 396.233,512.143 391.913,512.124"/>
		<path id="dp_path112" fill="black" fill-rule="evenodd" d="M 391.873,500.585 L 396.503,492.343"/>
		<path id="dp_path115" fill="black" fill-rule="evenodd" d="M 393.943,494.459 L 394.412,494.769 L 395.353,495.389 L 395.113,491.695 L 392.993,493.839 Z "/>
		<path id="dp_path116" fill="black" fill-rule="evenodd" d="M 392.463,500.853 L 394.412,494.769 L 393.943,494.459 L 391.993,500.543 Z "/>
		<g id="dp_group113">
			<path id="dp_path115" fill="black" fill-rule="evenodd" d="M 377.263,481.761 L 377.732,482.072 L 378.673,482.692 L 378.433,478.997 L 376.32,481.14 Z "/>
			<path id="dp_path116" fill="black" fill-rule="evenodd" d="M 375.787,488.156 L 377.732,482.072 L 377.263,481.761 L 375.315,487.845 Z "/>
		</g>
		<g id="dp_group117">
			<path id="dp_path118" fill="black" fill-rule="evenodd" d="M 375.344,488.013 L 375.4,477.733"/>
			<g id="dp_group119">
				<path id="dp_path121" fill="black" fill-rule="evenodd" d="M 375.132,481.065 L 375.632,481.068 L 376.632,481.072 L 375.4,477.733 L 374.133,481.061 Z "/>
				<path id="dp_path122" fill="black" fill-rule="evenodd" d="M 375.595,488.015 L 375.632,481.068 L 375.132,481.065 L 375.095,488.012 Z "/>
			</g>
		</g>
		<g id="dp_group113">
			<path id="dp_path115" fill="black" fill-rule="evenodd" d="M 355.949,433.093 L 356.421,433.404 L 357.363,434.024 L 357.12,430.329 L 355.007,432.473 Z "/>
			<path id="dp_path116" fill="black" fill-rule="evenodd" d="M 354.473,439.488 L 356.421,433.404 L 355.949,433.093 L 354.001,439.177 Z "/>
		</g>
		<g id="dp_group117">
			<path id="dp_path118" fill="black" fill-rule="evenodd" d="M 354.031,439.345 L 354.087,429.065"/>
			<g id="dp_group119">
				<path id="dp_path121" fill="black" fill-rule="evenodd" d="M 353.819,432.397 L 354.319,432.4 L 355.317,432.404 L 354.087,429.065 L 352.82,432.393 Z "/>
				<path id="dp_path122" fill="black" fill-rule="evenodd" d="M 354.28,439.347 L 354.319,432.4 L 353.819,432.397 L 353.781,439.344 Z "/>
			</g>
		</g>
		<g id="dp_group113">
			<path id="dp_path115" fill="black" fill-rule="evenodd" d="M 356.244,492.969 L 356.716,493.28 L 357.657,493.9 L 357.415,490.205 L 355.301,492.349 Z "/>
			<path id="dp_path116" fill="black" fill-rule="evenodd" d="M 354.768,499.364 L 356.716,493.28 L 356.244,492.969 L 354.296,499.053 Z "/>
		</g>
		<g id="dp_group117">
			<path id="dp_path118" fill="black" fill-rule="evenodd" d="M 354.325,499.221 L 354.381,488.943"/>
			<g id="dp_group119">
				<path id="dp_path121" fill="black" fill-rule="evenodd" d="M 354.113,492.275 L 354.613,492.276 L 355.613,492.281 L 354.381,488.943 L 353.115,492.271 Z "/>
				<path id="dp_path122" fill="black" fill-rule="evenodd" d="M 354.576,499.223 L 354.613,492.276 L 354.113,492.275 L 354.076,499.221 Z "/>
			</g>
		</g>
		<g id="dp_group117">
			<path id="dp_path118" fill="black" fill-rule="evenodd" d="M 392.023,500.711 L 392.073,490.431"/>
			<g id="dp_group119">
				<path id="dp_path121" fill="black" fill-rule="evenodd" d="M 391.812,493.763 L 392.313,493.765 L 393.313,493.769 L 392.073,490.431 L 390.812,493.759 Z "/>
				<path id="dp_path122" fill="black" fill-rule="evenodd" d="M 392.273,500.712 L 392.313,493.765 L 391.812,493.763 L 391.772,500.709 Z "/>
			</g>
		</g>
		<g id="dp_group045">
			<path id="dp_path046" fill="black" fill-rule="evenodd" d="M 535.143,518.137 L 535.643,428.836"/>
			<g id="dp_group047">
				<path id="dp_path049" fill="black" fill-rule="evenodd" d="M 535.073,434.22 L 536.153,434.225 L 538.313,434.239 L 535.643,428.836 L 532.923,434.207 Z "/>
				<path id="dp_path050" fill="black" fill-rule="evenodd" d="M 535.673,518.14 L 536.153,434.225 L 535.073,434.22 L 534.603,518.135 Z "/>
			</g>
		</g>
		<text id="dp_text108" transform="matrix(1,1.41543e-015,-1.41586e-015,1,428.072,443.729)" xml:space="preserve" fill="#e30808" font-family="Arial" font-size="15" font-weight="700" x="0" y="0">r  </text>
		<text id="dp_text109" transform="matrix(1,1.41586e-015,-1.41586e-015,1,481.222,476.514)" xml:space="preserve" fill="black" font-family="Arial" font-size="15" font-weight="700" x="0" y="0">r′</text>
		<text id="dp_text110" transform="matrix(1,1.41586e-015,-1.41586e-015,1,481.222,476.514)" xml:space="preserve" fill="black" font-family="Arial" font-size="15" font-weight="700" x="9.4" y="0"> </text>
		<text id="dp_text111" transform="matrix(1,1.41586e-015,-1.41586e-015,1,490.528,476.514)" xml:space="preserve" fill="#e30808" font-family="Arial" font-size="15" font-weight="400" x="0" y="0">  </text>
		<g id="dp_group088">
			<path id="dp_path089" fill="#fffffe" fill-rule="evenodd" stroke="black" stroke-width="0.634667" d="M 528.123,516.309 L 535.303,496.071 L 542.643,516.743 L 542.632,516.743 C 542.692,516.968 542.732,517.201 542.732,517.439 C 542.732,519.819 539.403,521.748 535.292,521.748 C 531.193,521.748 527.863,519.819 527.863,517.439 C 527.863,517.047 527.953,516.668 528.123,516.309 Z "/>
			<path id="dp_path090" fill="#fffffe" fill-rule="evenodd" stroke="black" stroke-width="0.634667" d="M 535.292,486.556 C 539.403,486.556 542.732,489.884 542.732,493.991 C 542.732,498.097 539.403,501.425 535.292,501.425 C 531.193,501.425 527.863,498.097 527.863,493.991 C 527.863,489.884 531.193,486.556 535.292,486.556 Z "/>
		</g>
		<path id="dp_path507" fill="white" fill-rule="evenodd" stroke="black" stroke-width="0.4" d="M 573.463,394.565 C 584.732,395.053 595.703,392.589 602.443,388.06 C 616.033,378.933 607.092,365.848 585.153,362.749 C 576.623,361.547 567.473,362.127 559.823,364.356 C 538.303,370.629 542.783,387.449 564.303,393.72 L 541.593,477.773 Z "/>
		<text id="dp_text112" transform="matrix(1,4.66966e-016,-4.66966e-016,1,598.372,382.623)" xml:space="preserve" fill="black" font-family="Arial" font-size="11" font-weight="400" x="0" y="0">′   </text>
		<text id="dp_text113" transform="matrix(1,4.66966e-016,-4.66966e-016,1,590.262,382.623)" xml:space="preserve" fill="black" font-family="Arial" font-size="11" font-weight="400" x="0" y="0">,   </text>
		<text id="dp_text114" transform="matrix(1,4.66966e-016,-4.66966e-016,1,587.352,382.623)" xml:space="preserve" fill="black" font-family="Arial" font-size="11" font-weight="400" x="0" y="0">′   </text>
		<text id="dp_text115" transform="matrix(1,4.66966e-016,-4.66966e-016,1,577.092,382.623)" xml:space="preserve" fill="black" font-family="Arial" font-size="11" font-weight="400" x="0" y="0">,   </text>
		<text id="dp_text116" transform="matrix(1,4.66966e-016,-4.66966e-016,1,574.192,382.623)" xml:space="preserve" fill="black" font-family="Arial" font-size="11" font-weight="400" x="0" y="0">′   </text>
		<text id="dp_text117" transform="matrix(1,4.66966e-016,-4.66966e-016,1,562.852,382.623)" xml:space="preserve" fill="black" font-family="Arial" font-size="11" font-weight="400" x="0" y="0">,   </text>
		<text id="dp_text118" transform="matrix(1,4.66966e-016,-4.66966e-016,1,559.942,382.623)" xml:space="preserve" fill="black" font-family="Arial" font-size="11" font-weight="400" x="0" y="0">′   </text>
		<text id="dp_text119" transform="matrix(1,4.66966e-016,-4.66966e-016,1,594.242,382.623)" xml:space="preserve" fill="black" font-family="Arial" font-size="11" font-weight="400" font-style="italic" x="0" y="0">t   </text>
		<text id="dp_text120" transform="matrix(1,4.66966e-016,-4.66966e-016,1,581.432,382.623)" xml:space="preserve" fill="black" font-family="Arial" font-size="11" font-weight="400" font-style="italic" x="0" y="0">z   </text>
		<text id="dp_text121" transform="matrix(1,4.66966e-016,-4.66966e-016,1,567.372,382.623)" xml:space="preserve" fill="black" font-family="Arial" font-size="11" font-weight="400" font-style="italic" x="0" y="0">y   </text>
		<path id="dp_path546" fill="black" fill-rule="evenodd" d="M 553.413,385.676 L 553.413,386.012 C 552.452,385.336 551.703,384.344 551.163,383.039 C 550.632,381.731 550.363,380.301 550.363,378.747 C 550.363,377.129 550.643,375.659 551.212,374.331 C 551.772,373.003 552.503,372.055 553.413,371.483 L 553.413,371.809 C 552.953,372.164 552.583,372.647 552.292,373.26 C 552.003,373.873 551.783,374.651 551.643,375.593 C 551.503,376.537 551.433,377.52 551.433,378.544 C 551.433,379.704 551.492,380.751 551.623,381.685 C 551.763,382.621 551.963,383.397 552.233,384.012 C 552.503,384.628 552.893,385.183 553.413,385.676 Z "/>
		<path id="dp_path547" fill="black" fill-rule="evenodd" d="M 601.123,371.809 L 601.123,371.483 C 602.083,372.153 602.833,373.141 603.363,374.448 C 603.903,375.755 604.173,377.185 604.173,378.739 C 604.173,380.356 603.883,381.828 603.323,383.159 C 602.763,384.489 602.023,385.439 601.123,386.012 L 601.123,385.676 C 601.572,385.321 601.953,384.839 602.243,384.227 C 602.532,383.613 602.753,382.836 602.893,381.896 C 603.033,380.956 603.103,379.972 603.103,378.943 C 603.103,377.788 603.043,376.741 602.913,375.805 C 602.772,374.867 602.572,374.089 602.303,373.473 C 602.023,372.859 601.632,372.304 601.123,371.809 Z "/>
		<text id="dp_text122" transform="matrix(1,4.66966e-016,-4.66966e-016,1,553.662,382.623)" xml:space="preserve" fill="black" font-family="Arial" font-size="11" font-weight="400" font-style="italic" x="0" y="0">x   </text>
		<g id="dp_group280">
			<path id="dp_path282" fill="#e30808" fill-rule="evenodd" d="M 446.173,412.487 L 447.443,413.949 L 448.543,418.153 L 451.923,408.745 L 442.153,410.839 Z "/>
			<path id="dp_path283" fill="#e30808" fill-rule="evenodd" d="M 446.173,412.487 L 325.809,517.616 L 327.087,519.08 L 447.443,413.951 Z "/>
		</g>
		<g id="dp_group284">
			<path id="dp_path285" fill="white" fill-rule="evenodd" stroke="black" stroke-width="0.634667" d="M 318.633,516.308 L 325.817,496.069 L 333.155,516.741 L 333.148,516.741 C 333.211,516.967 333.244,517.2 333.244,517.437 C 333.244,519.817 329.916,521.747 325.809,521.747 C 321.704,521.747 318.375,519.817 318.375,517.437 C 318.375,517.045 318.464,516.667 318.633,516.308 Z "/>
			<path id="dp_path286" fill="white" fill-rule="evenodd" stroke="black" stroke-width="0.634667" d="M 325.809,486.555 C 329.916,486.555 333.244,489.883 333.244,493.989 C 333.244,498.096 329.916,501.424 325.809,501.424 C 321.703,501.424 318.375,498.096 318.375,493.989 C 318.375,489.883 321.703,486.555 325.809,486.555 Z "/>
		</g>
		<g id="dp_group280">
			<path id="dp_path282" fill="black" fill-rule="evenodd" d="M 445.503,203.82 L 446.783,205.283 L 447.872,209.487 L 451.263,200.079 L 441.483,202.172 Z "/>
			<path id="dp_path283" fill="black" fill-rule="evenodd" d="M 445.503,203.82 L 325.143,308.949 L 326.42,310.413 L 446.783,205.284 Z "/>
		</g>
		<g id="dp_group284">
			<path id="dp_path285" fill="#fefeff" fill-rule="evenodd" stroke="black" stroke-width="0.634667" d="M 319.035,307.788 L 326.219,287.549 L 333.556,308.221 L 333.549,308.221 C 333.612,308.447 333.645,308.68 333.645,308.917 C 333.645,311.297 330.317,313.227 326.211,313.227 C 322.105,313.227 318.776,311.297 318.776,308.917 C 318.776,308.525 318.865,308.147 319.035,307.788 Z "/>
			<path id="dp_path286" fill="#fefeff" fill-rule="evenodd" stroke="black" stroke-width="0.634667" d="M 326.211,278.035 C 330.317,278.035 333.645,281.363 333.645,285.469 C 333.645,289.576 330.317,292.904 326.211,292.904 C 322.104,292.904 318.776,289.576 318.776,285.469 C 318.776,281.363 322.104,278.035 326.211,278.035 Z "/>
		</g>
	</g>
</svg>