<?xml version="1.0" encoding="UTF-8" standalone="no"?>
<!-- Created with Inkscape (http://www.inkscape.org/) -->

<svg
   xmlns:dc="http://purl.org/dc/elements/1.1/"
   xmlns:cc="http://creativecommons.org/ns#"
   xmlns:rdf="http://www.w3.org/1999/02/22-rdf-syntax-ns#"
   xmlns:svg="http://www.w3.org/2000/svg"
   xmlns="http://www.w3.org/2000/svg"
   xmlns:sodipodi="http://sodipodi.sourceforge.net/DTD/sodipodi-0.dtd"
   xmlns:inkscape="http://www.inkscape.org/namespaces/inkscape"
   id="svg2"
   version="1.1"
   inkscape:version="0.48.4 r9939"
   width="1052.5"
   height="743.75"
   xml:space="preserve"
   sodipodi:docname="lab2_concentric_cylinders.svg"><metadata
     id="metadata8"><rdf:RDF><cc:Work
         rdf:about=""><dc:format>image/svg+xml</dc:format><dc:type
           rdf:resource="http://purl.org/dc/dcmitype/StillImage" /><dc:title /></cc:Work></rdf:RDF></metadata><defs
     id="defs6"><marker
       inkscape:stockid="StopL"
       orient="auto"
       refY="0.0"
       refX="0.0"
       id="StopL"
       style="overflow:visible"><path
         id="path3961"
         d="M 0.0,5.65 L 0.0,-5.65"
         style="fill:none;fill-opacity:0.75000000;fill-rule:evenodd;stroke:#000000;stroke-width:1.0pt"
         transform="scale(0.8)" /></marker><marker
       inkscape:stockid="StopM"
       orient="auto"
       refY="0.0"
       refX="0.0"
       id="StopM"
       style="overflow:visible"><path
         id="path3964"
         d="M 0.0,5.65 L 0.0,-5.65"
         style="fill:none;fill-opacity:0.75000000;fill-rule:evenodd;stroke:#000000;stroke-width:1.0pt"
         transform="scale(0.4)" /></marker><clipPath
       clipPathUnits="userSpaceOnUse"
       id="clipPath18"><path
         d="M 0,0 842,0 842,595 0,595 0,0 z"
         id="path20" /></clipPath></defs><sodipodi:namedview
     pagecolor="#ffffff"
     bordercolor="#666666"
     borderopacity="1"
     objecttolerance="10"
     gridtolerance="10"
     guidetolerance="10"
     inkscape:pageopacity="0"
     inkscape:pageshadow="2"
     inkscape:window-width="1920"
     inkscape:window-height="1123"
     id="namedview4"
     showgrid="false"
     inkscape:zoom="0.89749083"
     inkscape:cx="794.77992"
     inkscape:cy="351.0508"
     inkscape:window-x="0"
     inkscape:window-y="24"
     inkscape:window-maximized="1"
     inkscape:current-layer="g10" /><g
     id="g10"
     inkscape:groupmode="layer"
     inkscape:label="out"
     transform="matrix(1.25,0,0,-1.25,0,743.75)"><path
       style="fill:#000000;fill-opacity:1;stroke:none"
       d="m 424.30176,605.23259 c -171.31772,0 -310.2,-138.88228 -310.2,-310.2 0,-171.31772 138.88228,-310.174996 310.2,-310.174996 171.31772,0 310.2,138.857276 310.2,310.174996 0,171.31772 -138.88228,310.2 -310.2,310.2 z m 0,-27.625 c 156.54894,0 283.45,-126.90105 283.45,-283.45 0,-156.54894 -126.90106,-283.449996 -283.45,-283.449996 -156.54894,0 -283.475,126.901056 -283.475,283.449996 0,156.54895 126.92606,283.45 283.475,283.45 z"
       id="path3003"
       inkscape:connector-curvature="0" /><g
       id="g12" /><path
       sodipodi:type="arc"
       style="fill:#000000;fill-opacity:1;stroke:none"
       id="path3006"
       sodipodi:cx="537.05286"
       sodipodi:cy="409.48474"
       sodipodi:rx="52.368225"
       sodipodi:ry="52.368225"
       d="m 589.42108,409.48474 c 0,28.92217 -23.44605,52.36823 -52.36822,52.36823 -28.92218,0 -52.36823,-23.44606 -52.36823,-52.36823 0,-28.92217 23.44605,-52.36822 52.36823,-52.36822 28.92217,0 52.36822,23.44605 52.36822,52.36822 z"
       transform="matrix(0.8,0,0,-0.8,-5.3482441,622.63259)" /><path
       style="fill:none;stroke:#000000;stroke-width:2.4000001;stroke-linecap:butt;stroke-linejoin:round;stroke-miterlimit:4;stroke-opacity:1;stroke-dasharray:none"
       d="m 349.41862,300.39304 c 0.46866,-63.73775 19.84945,-68.91103 73.98404,-77.54953 41.89458,-6.68531 71.75561,68.6358 69.52717,86.46328 -2.22843,17.82748 -38.77477,52.14537 -66.85305,50.80831 -28.07828,-1.33706 -77.0811,-2.20236 -76.65816,-59.72206 z"
       id="path3008"
       inkscape:connector-curvature="0"
       sodipodi:nodetypes="sssss" /><path
       style="fill:none;stroke:#000000;stroke-width:2.4000001;stroke-linecap:butt;stroke-linejoin:round;stroke-miterlimit:4;stroke-opacity:1;stroke-dasharray:none"
       d="m 335.15663,325.7972 c -26.98169,-75.42902 16.49043,-118.10705 71.30992,-127.0208 54.81951,-8.91373 102.50802,19.16455 111.86744,73.53836 9.35943,54.37382 -31.19809,90.92015 -68.6358,103.84507 -37.4377,12.92492 -93.69772,7.90762 -114.54156,-50.36263 z"
       id="path3010"
       inkscape:connector-curvature="0"
       sodipodi:nodetypes="sssss" /><path
       style="fill:none;stroke:#000000;stroke-width:2.4000001;stroke-linecap:butt;stroke-linejoin:round;stroke-miterlimit:4;stroke-opacity:1;stroke-dasharray:none"
       d="m 314.20934,328.47132 c -32.23995,-116.59107 25.01502,-157.50398 110.08469,-162.23007 64.17894,-3.5655 120.72917,69.47424 123.00962,112.31313 1.49411,28.06743 -5.15796,110.20361 -139.50003,127.02079 -59.33054,7.42711 -87.58421,-55.36932 -93.59428,-77.10385 z"
       id="path3012"
       inkscape:connector-curvature="0"
       sodipodi:nodetypes="sssss" /><path
       style="fill:none;stroke:#000000;stroke-width:2.4000001;stroke-linecap:butt;stroke-linejoin:round;stroke-miterlimit:4;stroke-opacity:1;stroke-dasharray:none"
       d="m 270.08633,311.98091 c -0.29579,-149.75616 64.18297,-158.59347 125.68374,-172.92656 78.39574,-18.27057 181.5402,79.69812 183.17735,123.90099 2.22844,60.16774 -38.31716,149.38543 -158.21888,167.13262 -123.4553,18.27317 -150.5101,-51.21701 -150.64221,-118.10705 z"
       id="path3014"
       inkscape:connector-curvature="0"
       sodipodi:nodetypes="sssss" /><path
       style="fill:none;stroke:#000000;stroke-width:2.4000001;stroke-linecap:butt;stroke-linejoin:round;stroke-miterlimit:4;stroke-opacity:1;stroke-dasharray:none"
       d="M 223.77385,312.6348 C 236.29466,137.7228 274.12716,129.24494 393.29741,100.63887 492.48878,76.828586 621.61423,211.13249 628.73015,252.01819 635.38101,290.23181 622.7964,403.21291 488.54322,464.35167 354.29005,525.49044 215.47888,428.51309 223.77385,312.6348 z"
       id="path3016"
       inkscape:connector-curvature="0"
       sodipodi:nodetypes="sssss" /><path
       style="fill:none;stroke:#000000;stroke-width:2.4000001;stroke-linecap:butt;stroke-linejoin:round;stroke-miterlimit:4;stroke-opacity:1;stroke-dasharray:none;marker-start:url(#StopM);marker-end:url(#StopM)"
       d="m 382.9052,344.29952 40.65412,0"
       id="path3786"
       inkscape:connector-curvature="0" /><path
       style="fill:none;stroke:#000000;stroke-width:2.4000001;stroke-linecap:butt;stroke-linejoin:round;stroke-miterlimit:4;stroke-opacity:1;stroke-dasharray:none;marker-start:url(#StopL);marker-end:url(#StopL)"
       d="m 425.60778,520.53355 282.16999,0"
       id="path4414"
       inkscape:connector-curvature="0"
       sodipodi:nodetypes="cc" /><text
       xml:space="preserve"
       style="font-size:17.60000038px;font-style:normal;font-weight:normal;line-height:125%;letter-spacing:0px;word-spacing:0px;fill:#000000;fill-opacity:1;stroke:none;font-family:Sans"
       x="412.8443"
       y="-238.88243"
       id="text4786"
       sodipodi:linespacing="125%"
       transform="scale(1,-1)"><tspan
         sodipodi:role="line"
         id="tspan4788"
         x="412.8443"
         y="-238.88243">0 V</tspan><tspan
         sodipodi:role="line"
         x="412.8443"
         y="-216.88243"
         id="tspan4790" /></text>
<text
       xml:space="preserve"
       style="font-size:17.60000038px;font-style:normal;font-weight:normal;line-height:125%;letter-spacing:0px;word-spacing:0px;fill:#000000;fill-opacity:1;stroke:none;font-family:Sans"
       x="413.47461"
       y="-207.36757"
       id="text4792"
       sodipodi:linespacing="125%"
       transform="scale(1,-1)"><tspan
         sodipodi:role="line"
         id="tspan4794"
         x="413.47461"
         y="-207.36757">2 V</tspan></text>
<text
       xml:space="preserve"
       style="font-size:17.60000038px;font-style:normal;font-weight:normal;line-height:125%;letter-spacing:0px;word-spacing:0px;fill:#000000;fill-opacity:1;stroke:none;font-family:Sans"
       x="412.84427"
       y="-181.52541"
       id="text4796"
       sodipodi:linespacing="125%"
       transform="scale(1,-1)"><tspan
         sodipodi:role="line"
         id="tspan4798"
         x="412.84427"
         y="-181.52541">4 V</tspan></text>
<text
       xml:space="preserve"
       style="font-size:17.60000038px;font-style:normal;font-weight:normal;line-height:125%;letter-spacing:0px;word-spacing:0px;fill:#000000;fill-opacity:1;stroke:none;font-family:Sans"
       x="412.8443"
       y="-150.0106"
       id="text4800"
       sodipodi:linespacing="125%"
       transform="scale(1,-1)"><tspan
         sodipodi:role="line"
         id="tspan4802"
         x="412.8443"
         y="-150.0106">6 V</tspan></text>
<text
       xml:space="preserve"
       style="font-size:17.60000038px;font-style:normal;font-weight:normal;line-height:125%;letter-spacing:0px;word-spacing:0px;fill:#000000;fill-opacity:1;stroke:none;font-family:Sans"
       x="412.8443"
       y="-119.12608"
       id="text4804"
       sodipodi:linespacing="125%"
       transform="scale(1,-1)"><tspan
         sodipodi:role="line"
         id="tspan4806"
         x="412.8443"
         y="-119.12608">8 V</tspan></text>
<text
       xml:space="preserve"
       style="font-size:17.60000038px;font-style:normal;font-weight:normal;line-height:125%;letter-spacing:0px;word-spacing:0px;fill:#000000;fill-opacity:1;stroke:none;font-family:Sans"
       x="405.75806"
       y="-78.787064"
       id="text4808"
       sodipodi:linespacing="125%"
       transform="scale(1,-1)"><tspan
         sodipodi:role="line"
         id="tspan4810"
         x="405.75806"
         y="-78.787064">10 V</tspan></text>
<text
       xml:space="preserve"
       style="font-size:17.60000038px;font-style:normal;font-weight:normal;line-height:125%;letter-spacing:0px;word-spacing:0px;fill:#000000;fill-opacity:1;stroke:none;font-family:Sans"
       x="406.09561"
       y="-20.169477"
       id="text4812"
       sodipodi:linespacing="125%"
       transform="scale(1,-1)"><tspan
         sodipodi:role="line"
         id="tspan4814"
         x="406.09561"
         y="-20.169477">12 V</tspan></text>
<text
       xml:space="preserve"
       style="font-size:17.60000038px;font-style:normal;font-weight:normal;line-height:125%;letter-spacing:0px;word-spacing:0px;fill:#000000;fill-opacity:1;stroke:none;font-family:Sans"
       x="489.74045"
       y="-501.08582"
       id="text4816"
       sodipodi:linespacing="125%"
       transform="scale(1,-1)"><tspan
         sodipodi:role="line"
         id="tspan4818"
         x="489.74045"
         y="-501.08582">101(1) mm</tspan></text>
<text
       xml:space="preserve"
       style="font-size:17.60000038px;font-style:normal;font-weight:normal;line-height:125%;letter-spacing:0px;word-spacing:0px;fill:#000000;fill-opacity:1;stroke:none;font-family:Sans"
       x="382.97238"
       y="-362.86624"
       id="text4820"
       sodipodi:linespacing="125%"
       transform="scale(1,-1)"><tspan
         sodipodi:role="line"
         id="tspan4822"
         x="382.97238"
         y="-362.86624">15(1) mm</tspan></text>
</g></svg>