<?xml version="1.0" encoding="UTF-8" standalone="no"?>
<!-- Created with Inkscape (http://www.inkscape.org/) -->

<svg
   xmlns:dc="http://purl.org/dc/elements/1.1/"
   xmlns:cc="http://creativecommons.org/ns#"
   xmlns:rdf="http://www.w3.org/1999/02/22-rdf-syntax-ns#"
   xmlns:svg="http://www.w3.org/2000/svg"
   xmlns="http://www.w3.org/2000/svg"
   xmlns:sodipodi="http://sodipodi.sourceforge.net/DTD/sodipodi-0.dtd"
   xmlns:inkscape="http://www.inkscape.org/namespaces/inkscape"
   id="svg2"
   version="1.1"
   inkscape:version="0.48.4 r9939"
   width="1052.5"
   height="743.75"
   xml:space="preserve"
   sodipodi:docname="lab2_parallel_plates.svg"
   inkscape:export-filename="/home/kota/phys1241/lab2/lab2_parallel_plates.png"
   inkscape:export-xdpi="300.00363"
   inkscape:export-ydpi="300.00363"><metadata
     id="metadata8"><rdf:RDF><cc:Work
         rdf:about=""><dc:format>image/svg+xml</dc:format><dc:type
           rdf:resource="http://purl.org/dc/dcmitype/StillImage" /><dc:title></dc:title></cc:Work></rdf:RDF></metadata><defs
     id="defs6"><marker
       inkscape:stockid="StopL"
       orient="auto"
       refY="0.0"
       refX="0.0"
       id="StopL"
       style="overflow:visible"><path
         id="path4436"
         d="M 0.0,5.65 L 0.0,-5.65"
         style="fill:none;fill-opacity:0.75000000;fill-rule:evenodd;stroke:#000000;stroke-width:1.0pt"
         transform="scale(0.8)" /></marker><marker
       inkscape:stockid="StopM"
       orient="auto"
       refY="0.0"
       refX="0.0"
       id="StopM"
       style="overflow:visible"><path
         id="path4439"
         d="M 0.0,5.65 L 0.0,-5.65"
         style="fill:none;fill-opacity:0.75000000;fill-rule:evenodd;stroke:#000000;stroke-width:1.0pt"
         transform="scale(0.4)" /></marker><marker
       style="overflow:visible"
       id="DistanceEnd"
       refX="0.0"
       refY="0.0"
       orient="auto"
       inkscape:stockid="DistanceEnd"><g
         id="g2301"><path
           style="fill:none;stroke:#ffffff;stroke-width:1.15;stroke-linecap:square"
           d="M 0,0 L -2,0"
           id="path2316" /><path
           style="fill:#000000;fill-rule:evenodd;stroke:none"
           d="M 0,0 L -13,4 L -9,0 -13,-4 L 0,0 z "
           id="path2312" /><path
           style="fill:none;stroke:#000000;stroke-width:1;stroke-linecap:square"
           d="M 0,-4 L 0,40"
           id="path2314" /></g></marker><marker
       style="overflow:visible"
       id="DistanceStart"
       refX="0.0"
       refY="0.0"
       orient="auto"
       inkscape:stockid="DistanceStart"><g
         id="g2300"><path
           style="fill:none;stroke:#ffffff;stroke-width:1.15;stroke-linecap:square"
           d="M 0,0 L 2,0"
           id="path2306" /><path
           style="fill:#000000;fill-rule:evenodd;stroke:none"
           d="M 0,0 L 13,4 L 9,0 13,-4 L 0,0 z "
           id="path2302" /><path
           style="fill:none;stroke:#000000;stroke-width:1;stroke-linecap:square"
           d="M 0,-4 L 0,40"
           id="path2304" /></g></marker><clipPath
       clipPathUnits="userSpaceOnUse"
       id="clipPath18"><path
         d="M 0,0 842,0 842,595 0,595 0,0 z"
         id="path20" /></clipPath></defs><sodipodi:namedview
     pagecolor="#ffffff"
     bordercolor="#666666"
     borderopacity="1"
     objecttolerance="10"
     gridtolerance="10"
     guidetolerance="10"
     inkscape:pageopacity="0"
     inkscape:pageshadow="2"
     inkscape:window-width="1920"
     inkscape:window-height="1123"
     id="namedview4"
     showgrid="false"
     inkscape:zoom="1"
     inkscape:cx="592.61212"
     inkscape:cy="418.70658"
     inkscape:window-x="0"
     inkscape:window-y="24"
     inkscape:window-maximized="1"
     inkscape:current-layer="g10" /><g
     id="g10"
     inkscape:groupmode="layer"
     inkscape:label="out"
     transform="matrix(1.25,0,0,-1.25,0,743.75)"><g
       id="g12" /><rect
       style="fill:#000000;fill-opacity:1"
       id="rect3001"
       width="356.90546"
       height="35.454185"
       x="378.96585"
       y="265.51245"
       transform="matrix(0.8,0,0,-0.8,0,595)" /><rect
       style="fill:#000000;fill-opacity:1"
       id="rect3771"
       width="355.32971"
       height="34.666313"
       x="381.32944"
       y="514.47961"
       transform="matrix(0.8,0,0,-0.8,0,595)" /><path
       style="fill:none;stroke:#000000;stroke-width:3;stroke-linecap:butt;stroke-linejoin:round;stroke-opacity:1;stroke-miterlimit:4;stroke-dasharray:none"
       d="m 684.65969,11.818061 c 0,0 57.51457,209.573619 62.24179,228.482519 4.72723,18.9089 7.09084,56.7267 -11.03019,70.90837 -18.12102,14.18167 -41.75715,24.42399 -178.05879,22.84825 -136.30164,-1.57574 -200.90704,-3.15148 -212.72511,-16.54528 -11.81806,-13.39381 -12.60593,-36.24206 -14.96954,-52.78734 -2.36361,-16.54529 7.87871,-218.240206 24.42399,-253.69439"
       id="path3773"
       inkscape:connector-curvature="0"
       transform="matrix(0.8,0,0,-0.8,0,595)" /><path
       style="fill:none;stroke:#000000;stroke-width:3;stroke-linecap:butt;stroke-linejoin:round;stroke-miterlimit:4;stroke-opacity:1;stroke-dasharray:none"
       d="m 453.81356,44.908633 c -51.83062,26.803364 -88.24152,198.543427 -99.27172,233.997617 -5.18092,16.65296 1.57575,45.6965 36.24206,46.48437 29.97279,0.6812 325.41039,0.49532 340.87525,-17.95949 9.33089,-11.13491 23.12103,-54.52462 5.78788,-88.40306 -9.98683,-19.51972 -59.12181,-75.74499 -90.22054,-93.25721 -32.34902,-18.21627 -70.6454,-49.300657 -96.50482,-69.832037 -27.4009,-21.755251 -59.37993,-30.43728 -96.90811,-11.03019 z"
       id="path3775"
       inkscape:connector-curvature="0"
       transform="matrix(0.8,0,0,-0.8,0,595)"
       sodipodi:nodetypes="ssssssss" /><path
       style="fill:none;stroke:#000000;stroke-width:3;stroke-linecap:butt;stroke-linejoin:round;stroke-opacity:1;stroke-miterlimit:4;stroke-dasharray:none"
       d="m 494.5,104.25 c -58.71118,11.01061 -115,119.5 -122.5,138 -7.5,18.5 -16,48 -5.5,63 10.5,15 22,18.5 44,18.5 22,0 307.14712,-9.00229 315.5,-13.5 19.5,-10.5 18.36151,-77.35234 1,-95 -41.70252,-42.38986 -159.38077,-124.712673 -232.5,-111 z"
       id="path3777"
       inkscape:connector-curvature="0"
       transform="matrix(0.8,0,0,-0.8,0,595)"
       sodipodi:nodetypes="sssssss" /><path
       style="fill:none;stroke:#000000;stroke-width:3;stroke-linecap:butt;stroke-linejoin:round;stroke-opacity:1;stroke-miterlimit:4;stroke-dasharray:none"
       d="m 964,10.75 c -8,90 -163,287.29289 -213,322.29289 -50,35 -322.51868,42.3557 -435.17157,10.58579 C 283.02439,334.37742 255,233.75 235,204.75 215,175.75 85.896413,47.971939 60,35.75 49.556349,30.821068 46,8.7499996 46,8.7499996"
       id="path3779"
       inkscape:connector-curvature="0"
       transform="matrix(0.8,0,0,-0.8,0,595)"
       sodipodi:nodetypes="cssssc" /><path
       style="fill:none;stroke:#000000;stroke-width:3;stroke-linecap:butt;stroke-linejoin:round;stroke-opacity:1;stroke-miterlimit:4;stroke-dasharray:none"
       d="M 1041.5683,267.86714 C 938.3307,294.73719 815.29412,352.71995 741.04791,373.93315 666.8017,395.14635 537.40115,393.02504 453.25545,388.07529 369.10974,383.12554 322.95253,368.81996 237.58787,374.64026 206.47518,376.76158 149.90664,347.0631 113.13709,339.99203 76.367532,332.92096 28.991378,327.26411 12.020815,319.48593"
       id="path3781"
       inkscape:connector-curvature="0"
       transform="matrix(0.8,0,0,-0.8,0,595)"
       sodipodi:nodetypes="cssssc" /><path
       style="fill:none;stroke:#000000;stroke-width:3;stroke-linecap:butt;stroke-linejoin:round;stroke-opacity:1;stroke-miterlimit:4;stroke-dasharray:none"
       d="M 1042.9825,515.35451 C 962.37233,492.01999 888.93147,440.4528 801.15198,426.96617 c -56.49456,-8.67995 -415.07168,-3.53555 -446.89148,8.48528 -38.32582,14.47865 -36.06245,12.72791 -51.6188,19.79898 -15.55635,7.07107 -26.55656,7.75389 -62.9325,24.04163 C 192.33304,500.50527 54.447222,615.05657 9.8994949,670.918"
       id="path3783"
       inkscape:connector-curvature="0"
       transform="matrix(0.8,0,0,-0.8,0,595)"
       sodipodi:nodetypes="cssssc" /><path
       style="fill:none;stroke:#000000;stroke-width:3;stroke-linecap:butt;stroke-linejoin:round;stroke-opacity:1;stroke-miterlimit:4;stroke-dasharray:none"
       d="M 791.25249,732.43629 C 801.15198,649.7048 779.93878,540.10325 767.21086,512.52608 754.48294,484.94892 729.02709,472.221 709.93521,467.27125 c -19.09188,-4.94975 -122.32947,5.65685 -154.14928,6.36396 -31.8198,0.70711 -156.87685,-15.42002 -184.55487,4.94975 -30.87049,22.71928 -17.67767,211.42492 -4.94975,255.26555"
       id="path3785"
       inkscape:connector-curvature="0"
       transform="matrix(0.8,0,0,-0.8,0,595)"
       sodipodi:nodetypes="cssssc" /><text
       xml:space="preserve"
       style="font-size:17.60000038px;font-style:normal;font-weight:normal;line-height:125%;letter-spacing:0px;word-spacing:0px;fill:#000000;fill-opacity:1;stroke:none;font-family:Sans"
       x="426.39999"
       y="-136.05722"
       id="text3955"
       sodipodi:linespacing="125%"
       transform="scale(1,-1)"><tspan
         sodipodi:role="line"
         x="426.39999"
         y="-136.05722"
         id="tspan3957"><tspan
           x="426.39999"
           y="-136.05722"
           id="tspan3959">12 V</tspan></tspan></text>
<text
       xml:space="preserve"
       style="font-size:17.60000038px;font-style:normal;font-weight:normal;line-height:125%;letter-spacing:0px;word-spacing:0px;fill:#000000;fill-opacity:1;stroke:none;font-family:Sans"
       x="644"
       y="-22.457226"
       id="text4003"
       sodipodi:linespacing="125%"
       transform="scale(1,-1)"><tspan
         sodipodi:role="line"
         x="644"
         y="-22.457226"
         id="tspan4005"><tspan
           x="644"
           y="-22.457226"
           id="tspan4007">10 V</tspan></tspan></text>
<text
       xml:space="preserve"
       style="font-size:17.60000038px;font-style:normal;font-weight:normal;line-height:125%;letter-spacing:0px;word-spacing:0px;fill:#000000;fill-opacity:1;stroke:none;font-family:Sans"
       x="786.40002"
       y="-167.25723"
       id="text3997"
       sodipodi:linespacing="125%"
       transform="scale(1,-1)"><tspan
         sodipodi:role="line"
         x="786.40002"
         y="-167.25723"
         id="tspan3999"><tspan
           x="786.40002"
           y="-167.25723"
           id="tspan4001">8 V</tspan></tspan></text>
<text
       xml:space="preserve"
       style="font-size:17.60000038px;font-style:normal;font-weight:normal;line-height:125%;letter-spacing:0px;word-spacing:0px;fill:#000000;fill-opacity:1;stroke:none;font-family:Sans"
       x="787.20001"
       y="-348.05722"
       id="text3991"
       sodipodi:linespacing="125%"
       transform="scale(1,-1)"><tspan
         sodipodi:role="line"
         x="787.20001"
         y="-348.05722"
         id="tspan3993"><tspan
           x="787.20001"
           y="-348.05722"
           id="tspan3995">6 V</tspan></tspan></text>
<text
       xml:space="preserve"
       style="font-size:17.60000038px;font-style:normal;font-weight:normal;line-height:125%;letter-spacing:0px;word-spacing:0px;fill:#000000;fill-opacity:1;stroke:none;font-family:Sans"
       x="770.40002"
       y="-540.85724"
       id="text3985"
       sodipodi:linespacing="125%"
       transform="scale(1,-1)"><tspan
         sodipodi:role="line"
         x="770.40002"
         y="-540.85724"
         id="tspan3987"><tspan
           x="770.40002"
           y="-540.85724"
           id="tspan3989">4 V</tspan></tspan></text>
<text
       xml:space="preserve"
       style="font-size:17.60000038px;font-style:normal;font-weight:normal;line-height:125%;letter-spacing:0px;word-spacing:0px;fill:#000000;fill-opacity:1;stroke:none;font-family:Sans"
       x="564.79999"
       y="-559.2572"
       id="text3979"
       sodipodi:linespacing="125%"
       transform="scale(1,-1)"><tspan
         sodipodi:role="line"
         x="564.79999"
         y="-559.2572"
         id="tspan3981"><tspan
           x="564.79999"
           y="-559.2572"
           id="tspan3983">2 V</tspan></tspan></text>
<text
       xml:space="preserve"
       style="font-size:17.60000038px;font-style:normal;font-weight:normal;line-height:125%;letter-spacing:0px;word-spacing:0px;fill:#000000;fill-opacity:1;stroke:none;font-family:Sans"
       x="455.20001"
       y="-551.2572"
       id="text3973"
       sodipodi:linespacing="125%"
       transform="scale(1,-1)"><tspan
         sodipodi:role="line"
         x="455.20001"
         y="-551.2572"
         id="tspan3975"><tspan
           x="455.20001"
           y="-551.2572"
           id="tspan3977">1 V</tspan></tspan></text>
<text
       xml:space="preserve"
       style="font-size:17.60000038px;font-style:normal;font-weight:normal;line-height:125%;letter-spacing:0px;word-spacing:0px;fill:#000000;fill-opacity:1;stroke:none;font-family:Sans"
       x="389.60001"
       y="-487.2572"
       id="text3967"
       sodipodi:linespacing="125%"
       transform="scale(1,-1)"><tspan
         sodipodi:role="line"
         x="389.60001"
         y="-487.2572"
         id="tspan3969"><tspan
           x="389.60001"
           y="-487.2572"
           id="tspan3971">0.8 V</tspan></tspan></text>
<text
       xml:space="preserve"
       style="font-size:17.60000038px;font-style:normal;font-weight:normal;line-height:125%;letter-spacing:0px;word-spacing:0px;fill:#000000;fill-opacity:1;stroke:none;font-family:Sans"
       x="434.39999"
       y="-388.85721"
       id="text3961"
       sodipodi:linespacing="125%"
       transform="scale(1,-1)"><tspan
         sodipodi:role="line"
         x="434.39999"
         y="-388.85721"
         id="tspan3963"><tspan
           x="434.39999"
           y="-388.85721"
           id="tspan3965">0 V</tspan></tspan></text>
<path
       style="fill:none;stroke:#000000;stroke-width:2.4000001;stroke-linecap:butt;stroke-linejoin:round;stroke-miterlimit:4;stroke-opacity:1;stroke-dasharray:none;marker-start:url(#StopL);marker-mid:none;marker-end:url(#StopL)"
       d="m 124.65,354.25 0,-170.825"
       id="path4081"
       inkscape:connector-curvature="0" /><text
       xml:space="preserve"
       style="font-size:17.60000038px;font-style:normal;font-weight:normal;line-height:125%;letter-spacing:0px;word-spacing:0px;fill:#000000;fill-opacity:1;stroke:none;font-family:Sans"
       x="28.799997"
       y="-264"
       id="text5677"
       sodipodi:linespacing="125%"
       transform="scale(1,-1)"><tspan
         sodipodi:role="line"
         x="28.799997"
         y="-264"
         id="tspan5681">62(2) mm</tspan></text>
</g></svg>